<?xml version="1.0" encoding="iso-8859-1"?>
<!-- Generator: Adobe Illustrator 18.1.1, SVG Export Plug-In . SVG Version: 6.00 Build 0)  -->
<svg xmlns="http://www.w3.org/2000/svg" xmlns:xlink="http://www.w3.org/1999/xlink" version="1.1" id="Capa_1" x="0px" y="0px" viewBox="0 0 354.796 354.796" style="enable-background:new 0 0 354.796 354.796;" xml:space="preserve" width="512px" height="512px">
<g>
	<g id="Layer_5_58_">
		<g>
			<g>
				<path d="M265.442,109.092c-10.602-4.25-13.665-6.82-13.665-11.461c0-3.714,2.813-8.053,10.744-8.053      c7.015,0,12.395,2.766,12.443,2.79c0.566,0.302,1.201,0.463,1.83,0.463c1.535,0,2.893-0.929,3.456-2.367l1.927-4.926      c0.671-1.795-0.347-3.359-1.645-3.92c-4.319-1.88-12.76-3.335-12.846-3.35c-0.136-0.024-0.609-0.125-0.609-0.678l-0.027-7.146      c0-2.152-1.797-3.904-4.003-3.904h-3.457c-2.204,0-4,1.751-4,3.905l0.009,7.513c0,0.576-0.624,0.826-0.852,0.879      c-10.655,2.538-17.314,10.343-17.314,20.188c0,12.273,10.145,17.819,21.099,21.982c8.757,3.438,12.329,6.924,12.329,12.037      c0,5.564-5.059,9.45-12.307,9.45c-6.189,0-14.565-3.923-14.648-3.963c-0.536-0.254-1.104-0.382-1.688-0.382      c-1.594,0-2.982,0.964-3.537,2.457l-1.84,4.982c-0.654,1.86,0.353,3.37,1.642,4.042c5.144,2.679,15.098,4.249,15.541,4.318      c0.119,0.017,0.725,0.23,0.725,0.784v7.48c0,2.152,1.797,3.904,4.004,3.904h3.572c2.208,0,4.005-1.751,4.005-3.904v-7.872      c0-0.736,0.543-0.801,0.655-0.828c11.351-2.55,18.343-10.855,18.343-21.283C285.325,121.518,279.377,114.597,265.442,109.092z" fill="#FFFFFF"/>
				<path d="M260.979,22.509c-51.816,0-93.818,42.005-93.818,93.818c0,51.814,42.002,93.82,93.818,93.82      c51.814,0,93.817-42.006,93.817-93.82C354.796,64.514,312.793,22.509,260.979,22.509z M260.979,188.404      c-39.808,0-72.076-32.271-72.076-72.076s32.268-72.075,72.076-72.075c39.806,0,72.073,32.27,72.073,72.075      S300.785,188.404,260.979,188.404z" fill="#FFFFFF"/>
			</g>
			<g>
				<path d="M335.733,255.61c-19.95,11.011-47.389,21.192-74.753,25.484c-24.346,3.818-70.148-5.39-70.148-16.265      c0-4.121,40.17,10.154,64.469,3.671c18.633-4.971,15.988-22.401,5.853-24.7c-10.076-2.287-69.108-23.913-94.323-24.659      c-11.878-0.351-41.203,4.131-55.393,6.442c-4.861,0.791-7.909,0.704-8.213,5.356c-1.412,21.62-4.195,65.832-5.712,88.926      c-0.032,0.488,0.646,7.05,6.061,2.432c5.927-5.054,14.24-10.656,21.929-8.912c12.063,2.737,116.424,21.856,130.819,18.51      c20.593-4.787,78.888-39.334,90.065-50.072C363.711,265.176,350.244,247.601,335.733,255.61z" fill="#FFFFFF"/>
				<path d="M74.426,224.74l-54.672-2.694c-4.221-0.208-8.532,2.973-9.581,7.066l-9.941,90.255c-1.048,4.094,1.55,7.578,5.773,7.741      l60.59-0.006c4.224,0.163,7.942-3.151,8.266-7.365l6.654-86.958C81.837,228.566,78.647,224.948,74.426,224.74z M42.24,315.145      c-8.349,0-15.116-6.768-15.116-15.116c0-8.349,6.768-15.116,15.116-15.116s15.116,6.768,15.116,15.116      C57.356,308.378,50.589,315.145,42.24,315.145z" fill="#FFFFFF"/>
			</g>
		</g>
	</g>
</g>
<g>
</g>
<g>
</g>
<g>
</g>
<g>
</g>
<g>
</g>
<g>
</g>
<g>
</g>
<g>
</g>
<g>
</g>
<g>
</g>
<g>
</g>
<g>
</g>
<g>
</g>
<g>
</g>
<g>
</g>
</svg>
