<?xml version="1.0" encoding="UTF-8" standalone="no"?>
<svg
   xmlns:dc="http://purl.org/dc/elements/1.1/"
   xmlns:cc="http://creativecommons.org/ns#"
   xmlns:rdf="http://www.w3.org/1999/02/22-rdf-syntax-ns#"
   xmlns:svg="http://www.w3.org/2000/svg"
   xmlns="http://www.w3.org/2000/svg"
   xmlns:sodipodi="http://sodipodi.sourceforge.net/DTD/sodipodi-0.dtd"
   xmlns:inkscape="http://www.inkscape.org/namespaces/inkscape"
   id="svg8"
   version="1.1"
   viewBox="0 0 118.76927 116.79987"
   height="116.79987mm"
   width="118.76927mm"
   sodipodi:docname="accountability_category_white.svg"
   inkscape:version="0.92.3 (2405546, 2018-03-11)">
  <sodipodi:namedview
     pagecolor="#ffffff"
     bordercolor="#666666"
     borderopacity="1"
     objecttolerance="10"
     gridtolerance="10"
     guidetolerance="10"
     inkscape:pageopacity="0"
     inkscape:pageshadow="2"
     inkscape:window-width="1920"
     inkscape:window-height="1001"
     id="namedview5503"
     showgrid="false"
     inkscape:zoom="0.64920541"
     inkscape:cx="224.10251"
     inkscape:cy="259.68769"
     inkscape:window-x="-9"
     inkscape:window-y="-9"
     inkscape:window-maximized="1"
     inkscape:current-layer="svg8" />
  <defs
     id="defs2" />
  <metadata
     id="metadata5">
    <rdf:RDF>
      <cc:Work
         rdf:about="">
        <dc:format>image/svg+xml</dc:format>
        <dc:type
           rdf:resource="http://purl.org/dc/dcmitype/StillImage" />
        <dc:title></dc:title>
      </cc:Work>
    </rdf:RDF>
  </metadata>
  <g
     style="fill:#ffffff"
     id="g342"
     transform="matrix(3.5628244,0,0,3.5628244,35.705899,7.0641665)">
    <g
       style="fill:#ffffff"
       id="g286">
      <path
         inkscape:connector-curvature="0"
         id="path284"
         d="m 15,18 v -4 h -4 v 8 l 4,0.001 V 20 h 8 v 8 H 15 V 24 H 9 V 8 H 5 V 0 h 8 v 8 h -2 v 4 h 4 v -2 h 8 v 8 z"
         style="fill:#ffffff" />
    </g>
    <g
       style="fill:#ffffff"
       id="g288" />
    <g
       style="fill:#ffffff"
       id="g290" />
    <g
       style="fill:#ffffff"
       id="g292" />
    <g
       style="fill:#ffffff"
       id="g294" />
    <g
       style="fill:#ffffff"
       id="g296" />
    <g
       style="fill:#ffffff"
       id="g298" />
    <g
       style="fill:#ffffff"
       id="g300" />
    <g
       style="fill:#ffffff"
       id="g302" />
    <g
       style="fill:#ffffff"
       id="g304" />
    <g
       style="fill:#ffffff"
       id="g306" />
    <g
       style="fill:#ffffff"
       id="g308" />
    <g
       style="fill:#ffffff"
       id="g310" />
    <g
       style="fill:#ffffff"
       id="g312" />
    <g
       style="fill:#ffffff"
       id="g314" />
    <g
       style="fill:#ffffff"
       id="g316" />
  </g>
  <g
     id="g5837"
     transform="matrix(0.17526337,0,0,0.17526337,1.8827042,32.115778)"
     style="fill:#ffffff">
    <g
       id="g5774"
       style="fill:#ffffff">
	<g
   id="Layer_5_58_"
   style="fill:#ffffff">
		<g
   id="g5771"
   style="fill:#ffffff">
			<g
   id="g5763"
   style="fill:#ffffff">
				<path
   id="path5759"
   d="m 265.442,109.092 c -10.602,-4.25 -13.665,-6.82 -13.665,-11.461 0,-3.714 2.813,-8.053 10.744,-8.053 7.015,0 12.395,2.766 12.443,2.79 0.566,0.302 1.201,0.463 1.83,0.463 1.535,0 2.893,-0.929 3.456,-2.367 l 1.927,-4.926 c 0.671,-1.795 -0.347,-3.359 -1.645,-3.92 -4.319,-1.88 -12.76,-3.335 -12.846,-3.35 -0.136,-0.024 -0.609,-0.125 -0.609,-0.678 l -0.027,-7.146 c 0,-2.152 -1.797,-3.904 -4.003,-3.904 h -3.457 c -2.204,0 -4,1.751 -4,3.905 l 0.009,7.513 c 0,0.576 -0.624,0.826 -0.852,0.879 -10.655,2.538 -17.314,10.343 -17.314,20.188 0,12.273 10.145,17.819 21.099,21.982 8.757,3.438 12.329,6.924 12.329,12.037 0,5.564 -5.059,9.45 -12.307,9.45 -6.189,0 -14.565,-3.923 -14.648,-3.963 -0.536,-0.254 -1.104,-0.382 -1.688,-0.382 -1.594,0 -2.982,0.964 -3.537,2.457 l -1.84,4.982 c -0.654,1.86 0.353,3.37 1.642,4.042 5.144,2.679 15.098,4.249 15.541,4.318 0.119,0.017 0.725,0.23 0.725,0.784 v 7.48 c 0,2.152 1.797,3.904 4.004,3.904 h 3.572 c 2.208,0 4.005,-1.751 4.005,-3.904 v -7.872 c 0,-0.736 0.543,-0.801 0.655,-0.828 11.351,-2.55 18.343,-10.855 18.343,-21.283 -0.003,-10.711 -5.951,-17.632 -19.886,-23.137 z"
   inkscape:connector-curvature="0"
   style="fill:#ffffff" />

				<path
   id="path5761"
   d="m 260.979,22.509 c -51.816,0 -93.818,42.005 -93.818,93.818 0,51.814 42.002,93.82 93.818,93.82 51.814,0 93.817,-42.006 93.817,-93.82 0,-51.813 -42.003,-93.818 -93.817,-93.818 z m 0,165.895 c -39.808,0 -72.076,-32.271 -72.076,-72.076 0,-39.805 32.268,-72.075 72.076,-72.075 39.806,0 72.073,32.27 72.073,72.075 0,39.805 -32.267,72.076 -72.073,72.076 z"
   inkscape:connector-curvature="0"
   style="fill:#ffffff" />

			</g>

			<g
   id="g5769"
   style="fill:#ffffff">
				<path
   id="path5765"
   d="m 335.733,255.61 c -19.95,11.011 -47.389,21.192 -74.753,25.484 -24.346,3.818 -70.148,-5.39 -70.148,-16.265 0,-4.121 40.17,10.154 64.469,3.671 18.633,-4.971 15.988,-22.401 5.853,-24.7 -10.076,-2.287 -69.108,-23.913 -94.323,-24.659 -11.878,-0.351 -41.203,4.131 -55.393,6.442 -4.861,0.791 -7.909,0.704 -8.213,5.356 -1.412,21.62 -4.195,65.832 -5.712,88.926 -0.032,0.488 0.646,7.05 6.061,2.432 5.927,-5.054 14.24,-10.656 21.929,-8.912 12.063,2.737 116.424,21.856 130.819,18.51 20.593,-4.787 78.888,-39.334 90.065,-50.072 17.324,-16.647 3.857,-34.222 -10.654,-26.213 z"
   inkscape:connector-curvature="0"
   style="fill:#ffffff" />

				<path
   id="path5767"
   d="m 74.426,224.74 -54.672,-2.694 c -4.221,-0.208 -8.532,2.973 -9.581,7.066 l -9.941,90.255 c -1.048,4.094 1.55,7.578 5.773,7.741 l 60.59,-0.006 c 4.224,0.163 7.942,-3.151 8.266,-7.365 l 6.654,-86.958 c 0.322,-4.213 -2.868,-7.831 -7.089,-8.039 z M 42.24,315.145 c -8.349,0 -15.116,-6.768 -15.116,-15.116 0,-8.349 6.768,-15.116 15.116,-15.116 8.348,0 15.116,6.768 15.116,15.116 0,8.349 -6.767,15.116 -15.116,15.116 z"
   inkscape:connector-curvature="0"
   style="fill:#ffffff" />

			</g>

		</g>

	</g>

</g>
    <g
       id="g5776"
       style="fill:#ffffff">
</g>
    <g
       id="g5778"
       style="fill:#ffffff">
</g>
    <g
       id="g5780"
       style="fill:#ffffff">
</g>
    <g
       id="g5782"
       style="fill:#ffffff">
</g>
    <g
       id="g5784"
       style="fill:#ffffff">
</g>
    <g
       id="g5786"
       style="fill:#ffffff">
</g>
    <g
       id="g5788"
       style="fill:#ffffff">
</g>
    <g
       id="g5790"
       style="fill:#ffffff">
</g>
    <g
       id="g5792"
       style="fill:#ffffff">
</g>
    <g
       id="g5794"
       style="fill:#ffffff">
</g>
    <g
       id="g5796"
       style="fill:#ffffff">
</g>
    <g
       id="g5798"
       style="fill:#ffffff">
</g>
    <g
       id="g5800"
       style="fill:#ffffff">
</g>
    <g
       id="g5802"
       style="fill:#ffffff">
</g>
    <g
       id="g5804"
       style="fill:#ffffff">
</g>
  </g>
</svg>
