<?xml version="1.0" encoding="iso-8859-1"?>
<!DOCTYPE svg PUBLIC "-//W3C//DTD SVG 1.1//EN" "http://www.w3.org/Graphics/SVG/1.1/DTD/svg11.dtd">
<svg xmlns="http://www.w3.org/2000/svg" xmlns:xlink="http://www.w3.org/1999/xlink" version="1.1" viewBox="0 0 297 297" enable-background="new 0 0 297 297" width="512px" height="512px">
  <g>
    <path d="M148.5,71.388c19.49,0,35.346-15.857,35.346-35.346S167.99,0.696,148.5,0.696s-35.346,15.857-35.346,35.346   S129.01,71.388,148.5,71.388z" fill="#FFFFFF"/>
    <path d="m155.932,82.821c-0.786-0.856-1.935-1.287-3.097-1.287h-8.67c-1.162,0-2.311,0.431-3.097,1.287-1.217,1.326-1.393,3.241-0.53,4.738l4.634,6.987-2.17,18.302 4.272,11.365c0.417,1.143 2.033,1.143 2.45,0l4.272-11.365-2.17-18.302 4.634-6.987c0.866-1.497 0.689-3.413-0.528-4.738z" fill="#FFFFFF"/>
    <path d="m94.069,164.469h108.86c2.776,0 5.035-2.259 5.035-5.035v-45.353c0-13.214-8.566-24.948-21.316-29.197l-9.94-3.051c-1.819-0.562-3.757,0.404-4.41,2.194l-23.798,65.296-23.798-65.297c-0.528-1.446-1.893-2.353-3.356-2.353-0.348,0-0.702,0.051-1.05,0.159l-9.864,3.026c-12.831,4.276-21.397,16.009-21.397,29.223v45.353c0,2.776 2.259,5.035 5.034,5.035z" fill="#FFFFFF"/>
    <path d="M35.345,89.454c19.49,0,35.346-15.856,35.346-35.345c0-19.49-15.857-35.346-35.346-35.346C15.856,18.763,0,34.62,0,54.109   C0,73.599,15.856,89.454,35.345,89.454z" fill="#FFFFFF"/>
    <path d="m95.511,186.619h-28.152v-55.605c0-17.681-14.333-32.014-32.013-32.014-17.68,0-32.013,14.333-32.013,32.013v75.535c0,16.975 13.761,30.736 30.736,30.736h36.527v50.333c0,4.798 3.889,8.687 8.687,8.687h33.725c4.798,0 8.687-3.889 8.687-8.687v-74.814c-1.42109e-14-14.461-11.723-26.184-26.184-26.184z" fill="#FFFFFF"/>
    <path d="m261.655,89.454c19.49,0 35.345-15.856 35.345-35.345 0-19.49-15.856-35.346-35.345-35.346s-35.346,15.857-35.346,35.346c-0.001,19.49 15.856,35.345 35.346,35.345z" fill="#FFFFFF"/>
    <path d="m261.654,99c-17.681,0-32.013,14.333-32.013,32.013v55.605h-28.151c-14.461,0-26.184,11.723-26.184,26.184v74.814c0,4.798 3.889,8.687 8.687,8.687h33.725c4.798,0 8.687-3.889 8.687-8.687v-50.333h36.527c16.975,0 30.736-13.761 30.736-30.736v-75.535c0-17.679-14.333-32.012-32.014-32.012z" fill="#FFFFFF"/>
  </g>
</svg>
