<?xml version="1.0" encoding="UTF-8" standalone="no"?>
<svg
   xmlns:dc="http://purl.org/dc/elements/1.1/"
   xmlns:cc="http://creativecommons.org/ns#"
   xmlns:rdf="http://www.w3.org/1999/02/22-rdf-syntax-ns#"
   xmlns:svg="http://www.w3.org/2000/svg"
   xmlns="http://www.w3.org/2000/svg"
   xmlns:sodipodi="http://sodipodi.sourceforge.net/DTD/sodipodi-0.dtd"
   xmlns:inkscape="http://www.inkscape.org/namespaces/inkscape"
   id="svg8"
   version="1.1"
   viewBox="0 0 118.76927 116.79987"
   height="116.79987mm"
   width="118.76927mm"
   sodipodi:docname="occurrence_category_white.svg"
   inkscape:version="0.92.3 (2405546, 2018-03-11)">
  <sodipodi:namedview
     pagecolor="#ffffff"
     bordercolor="#666666"
     borderopacity="1"
     objecttolerance="10"
     gridtolerance="10"
     guidetolerance="10"
     inkscape:pageopacity="0"
     inkscape:pageshadow="2"
     inkscape:window-width="1920"
     inkscape:window-height="1001"
     id="namedview5503"
     showgrid="false"
     inkscape:zoom="0.64920541"
     inkscape:cx="224.10251"
     inkscape:cy="259.68769"
     inkscape:window-x="-9"
     inkscape:window-y="-9"
     inkscape:window-maximized="1"
     inkscape:current-layer="svg8" />
  <defs
     id="defs2" />
  <metadata
     id="metadata5">
    <rdf:RDF>
      <cc:Work
         rdf:about="">
        <dc:format>image/svg+xml</dc:format>
        <dc:type
           rdf:resource="http://purl.org/dc/dcmitype/StillImage" />
        <dc:title />
      </cc:Work>
    </rdf:RDF>
  </metadata>
  <g
     style="fill:#ffffff"
     id="g149"
     transform="matrix(0.11341276,0,0,0.11341276,0.28589361,30.492249)">
    <g
       style="fill:#ffffff"
       id="g85"
       transform="translate(0,-1)">
      <g
         style="fill:#ffffff"
         id="g83">
        <g
           style="fill:#ffffff"
           id="g81">
          <path
             inkscape:connector-curvature="0"
             id="path67"
             d="m 167.974,351.473 c 21.086,29.73 42.138,56.32 56.09,73.446 2.031,2.492 3.934,4.804 5.777,7.031 h -42.103 c -4.713,0 -8.533,3.82 -8.533,8.533 0,4.713 3.82,8.533 8.533,8.533 H 324.27 c 4.713,0 8.533,-3.82 8.533,-8.533 0,-4.713 -3.82,-8.533 -8.533,-8.533 h -42.103 c 1.843,-2.227 3.746,-4.54 5.786,-7.031 13.943,-17.067 34.987,-43.716 56.081,-73.446 20.929,-28.905 39.767,-59.267 56.371,-90.854 17.425,-34.219 26.266,-62.626 26.266,-84.437 0.058,-45.321 -17.926,-88.801 -49.98,-120.841 -2.141,-2.22 -5.313,-3.112 -8.297,-2.333 -2.984,0.779 -5.316,3.107 -6.099,6.09 -0.783,2.983 0.104,6.156 2.321,8.3 28.852,28.844 45.039,67.985 44.988,108.783 0,19.098 -8.209,44.902 -24.405,76.689 -16.229,30.855 -34.64,60.513 -55.091,88.747 -20.804,29.346 -41.6,55.637 -55.381,72.533 -4.582,5.615 -8.704,10.581 -12.22,14.78 -1.641,1.874 -4.011,2.948 -6.502,2.948 -2.491,0 -4.861,-1.075 -6.502,-2.948 -3.516,-4.198 -7.637,-9.165 -12.22,-14.78 -13.781,-16.887 -34.577,-43.179 -55.381,-72.533 -20.451,-28.234 -38.862,-57.892 -55.091,-88.747 -16.213,-31.787 -24.405,-57.591 -24.405,-76.689 -0.005,-61.809 36.959,-117.627 93.867,-141.747 38.238,-16.034 81.314,-16.034 119.552,0 2.808,1.19 6.037,0.793 8.472,-1.044 2.435,-1.836 3.705,-4.832 3.332,-7.859 -0.373,-3.027 -2.332,-5.625 -5.14,-6.815 -86.898,-36.652 -187.056,4.062 -223.735,90.948 -8.895,21.046 -13.457,43.669 -13.414,66.517 0,21.811 8.841,50.219 26.266,84.48 16.602,31.573 35.441,61.921 56.368,90.812 z"
             style="fill:#ffffff" />
          <path
             inkscape:connector-curvature="0"
             id="path69"
             d="m 256.003,99.151 c 4.713,0 8.533,-3.82 8.533,-8.533 0,-4.713 -3.82,-8.533 -8.533,-8.533 -40.71,-10e-4 -75.752,28.757 -83.695,68.685 -7.943,39.928 13.426,79.906 51.037,95.486 37.611,15.58 80.99,2.421 103.608,-31.428 22.618,-33.849 18.175,-78.962 -10.611,-107.749 -2.143,-2.218 -5.315,-3.108 -8.299,-2.327 -2.983,0.781 -5.313,3.111 -6.094,6.094 -0.781,2.984 0.109,6.156 2.327,8.299 23.03,23.029 26.585,59.118 8.492,86.198 -18.093,27.08 -52.796,37.608 -82.885,25.146 -30.089,-12.462 -47.185,-44.444 -40.833,-76.387 6.352,-31.943 34.385,-54.95 66.953,-54.951 z"
             style="fill:#ffffff" />
          <path
             inkscape:connector-curvature="0"
             id="path71"
             d="m 508.786,470.957 -52.48,-93.867 c -4.745,-8.34 -13.624,-13.466 -23.219,-13.406 H 372.27 c -4.713,0 -8.533,3.82 -8.533,8.533 0,4.713 3.82,8.533 8.533,8.533 h 60.817 c 3.416,-0.066 6.603,1.715 8.337,4.659 l 52.463,93.867 c 1.429,2.442 1.399,5.471 -0.077,7.885 -1.743,2.88 -4.895,4.605 -8.26,4.523 H 26.457 c -3.362,0.08 -6.51,-1.646 -8.252,-4.523 -1.476,-2.414 -1.505,-5.443 -0.077,-7.885 l 52.463,-93.867 c 1.731,-2.943 4.915,-4.724 8.328,-4.659 h 60.817 c 4.713,0 8.533,-3.82 8.533,-8.533 0,-4.713 -3.82,-8.533 -8.533,-8.533 H 78.92 c -9.6,-0.063 -18.486,5.063 -23.236,13.406 L 3.212,470.957 c -4.375,7.728 -4.274,17.208 0.265,24.841 4.782,8.128 13.551,13.071 22.98,12.954 H 485.55 c 9.426,0.114 18.192,-4.828 22.972,-12.954 4.539,-7.634 4.64,-17.113 0.264,-24.841 z"
             style="fill:#ffffff" />
          <path
             inkscape:connector-curvature="0"
             id="path73"
             d="m 418.137,406.351 h -34.133 c -1.685,0.003 -3.332,0.501 -4.736,1.434 l -25.6,17.067 c -3.921,2.616 -4.979,7.915 -2.364,11.836 2.616,3.921 7.915,4.979 11.836,2.364 l 23.424,-15.633 h 31.573 c 4.713,0 8.533,-3.821 8.533,-8.533 0,-4.715 -3.82,-8.535 -8.533,-8.535 z"
             style="fill:#ffffff" />
          <path
             inkscape:connector-curvature="0"
             id="path75"
             d="m 366.937,466.084 c 0,4.713 3.82,8.533 8.533,8.533 h 68.267 c 4.713,0 8.533,-3.82 8.533,-8.533 0,-4.713 -3.82,-8.533 -8.533,-8.533 H 375.47 c -4.713,0 -8.533,3.82 -8.533,8.533 z"
             style="fill:#ffffff" />
          <path
             inkscape:connector-curvature="0"
             id="path77"
             d="m 153.603,440.484 c 3.762,0.005 7.083,-2.455 8.176,-6.055 1.093,-3.6 -0.301,-7.491 -3.431,-9.578 l -25.6,-17.067 c -1.406,-0.934 -3.057,-1.433 -4.745,-1.434 H 93.87 c -4.713,0 -8.533,3.821 -8.533,8.533 0,4.713 3.821,8.533 8.533,8.533 h 31.573 l 23.45,15.633 c 1.395,0.932 3.034,1.431 4.71,1.435 z"
             style="fill:#ffffff" />
          <path
             inkscape:connector-curvature="0"
             id="path79"
             d="m 68.27,457.551 c -4.713,0 -8.533,3.82 -8.533,8.533 0,4.713 3.82,8.533 8.533,8.533 h 68.267 c 4.713,0 8.533,-3.82 8.533,-8.533 0,-4.713 -3.82,-8.533 -8.533,-8.533 z"
             style="fill:#ffffff" />
        </g>
      </g>
    </g>
    <g
       style="fill:#ffffff"
       id="g87" />
    <g
       style="fill:#ffffff"
       id="g89" />
    <g
       style="fill:#ffffff"
       id="g91" />
    <g
       style="fill:#ffffff"
       id="g93" />
    <g
       style="fill:#ffffff"
       id="g95" />
    <g
       style="fill:#ffffff"
       id="g97" />
    <g
       style="fill:#ffffff"
       id="g99" />
    <g
       style="fill:#ffffff"
       id="g101" />
    <g
       style="fill:#ffffff"
       id="g103" />
    <g
       style="fill:#ffffff"
       id="g105" />
    <g
       style="fill:#ffffff"
       id="g107" />
    <g
       style="fill:#ffffff"
       id="g109" />
    <g
       style="fill:#ffffff"
       id="g111" />
    <g
       style="fill:#ffffff"
       id="g113" />
    <g
       style="fill:#ffffff"
       id="g115" />
  </g>
  <g
     style="fill:#ffffff"
     id="g342"
     transform="matrix(3.5628244,0,0,3.5628244,35.705899,7.0641665)">
    <g
       style="fill:#ffffff"
       id="g286">
      <path
         inkscape:connector-curvature="0"
         id="path284"
         d="m 15,18 v -4 h -4 v 8 l 4,0.001 V 20 h 8 v 8 H 15 V 24 H 9 V 8 H 5 V 0 h 8 v 8 h -2 v 4 h 4 v -2 h 8 v 8 z"
         style="fill:#ffffff" />
    </g>
    <g
       style="fill:#ffffff"
       id="g288" />
    <g
       style="fill:#ffffff"
       id="g290" />
    <g
       style="fill:#ffffff"
       id="g292" />
    <g
       style="fill:#ffffff"
       id="g294" />
    <g
       style="fill:#ffffff"
       id="g296" />
    <g
       style="fill:#ffffff"
       id="g298" />
    <g
       style="fill:#ffffff"
       id="g300" />
    <g
       style="fill:#ffffff"
       id="g302" />
    <g
       style="fill:#ffffff"
       id="g304" />
    <g
       style="fill:#ffffff"
       id="g306" />
    <g
       style="fill:#ffffff"
       id="g308" />
    <g
       style="fill:#ffffff"
       id="g310" />
    <g
       style="fill:#ffffff"
       id="g312" />
    <g
       style="fill:#ffffff"
       id="g314" />
    <g
       style="fill:#ffffff"
       id="g316" />
  </g>
</svg>
