<?xml version="1.0" encoding="UTF-8" standalone="no"?>
<svg
   xmlns:dc="http://purl.org/dc/elements/1.1/"
   xmlns:cc="http://creativecommons.org/ns#"
   xmlns:rdf="http://www.w3.org/1999/02/22-rdf-syntax-ns#"
   xmlns:svg="http://www.w3.org/2000/svg"
   xmlns="http://www.w3.org/2000/svg"
   xmlns:sodipodi="http://sodipodi.sourceforge.net/DTD/sodipodi-0.dtd"
   xmlns:inkscape="http://www.inkscape.org/namespaces/inkscape"
   id="svg8"
   version="1.1"
   viewBox="0 0 118.76927 116.79987"
   height="116.79987mm"
   width="118.76927mm"
   sodipodi:docname="post_category_white.svg"
   inkscape:version="0.92.3 (2405546, 2018-03-11)">
  <sodipodi:namedview
     pagecolor="#ffffff"
     bordercolor="#666666"
     borderopacity="1"
     objecttolerance="10"
     gridtolerance="10"
     guidetolerance="10"
     inkscape:pageopacity="0"
     inkscape:pageshadow="2"
     inkscape:window-width="1920"
     inkscape:window-height="1001"
     id="namedview5503"
     showgrid="false"
     inkscape:zoom="0.64920541"
     inkscape:cx="224.10251"
     inkscape:cy="259.68769"
     inkscape:window-x="-9"
     inkscape:window-y="-9"
     inkscape:window-maximized="1"
     inkscape:current-layer="svg8" />
  <defs
     id="defs2" />
  <metadata
     id="metadata5">
    <rdf:RDF>
      <cc:Work
         rdf:about="">
        <dc:format>image/svg+xml</dc:format>
        <dc:type
           rdf:resource="http://purl.org/dc/dcmitype/StillImage" />
        <dc:title></dc:title>
      </cc:Work>
    </rdf:RDF>
  </metadata>
  <g
     style="fill:#ffffff"
     id="g342"
     transform="matrix(3.5628244,0,0,3.5628244,35.705899,7.0641665)">
    <g
       style="fill:#ffffff"
       id="g286">
      <path
         inkscape:connector-curvature="0"
         id="path284"
         d="m 15,18 v -4 h -4 v 8 l 4,0.001 V 20 h 8 v 8 H 15 V 24 H 9 V 8 H 5 V 0 h 8 v 8 h -2 v 4 h 4 v -2 h 8 v 8 z"
         style="fill:#ffffff" />
    </g>
    <g
       style="fill:#ffffff"
       id="g288" />
    <g
       style="fill:#ffffff"
       id="g290" />
    <g
       style="fill:#ffffff"
       id="g292" />
    <g
       style="fill:#ffffff"
       id="g294" />
    <g
       style="fill:#ffffff"
       id="g296" />
    <g
       style="fill:#ffffff"
       id="g298" />
    <g
       style="fill:#ffffff"
       id="g300" />
    <g
       style="fill:#ffffff"
       id="g302" />
    <g
       style="fill:#ffffff"
       id="g304" />
    <g
       style="fill:#ffffff"
       id="g306" />
    <g
       style="fill:#ffffff"
       id="g308" />
    <g
       style="fill:#ffffff"
       id="g310" />
    <g
       style="fill:#ffffff"
       id="g312" />
    <g
       style="fill:#ffffff"
       id="g314" />
    <g
       style="fill:#ffffff"
       id="g316" />
  </g>
  <g
     id="g5703"
     transform="matrix(0.13616938,0,0,0.13616938,-2.5720915,29.50419)"
     style="fill:#ffffff">
    <g
       id="g5636"
       style="fill:#ffffff">
	<g
   id="g5634"
   style="fill:#ffffff">
		<g
   id="g5632"
   style="fill:#ffffff">
			<path
   id="path5612"
   d="m 173.322,114.954 c -0.019,0.358 -0.019,0.716 0,1.074 0.297,5.474 4.975,9.672 10.449,9.375 h 175.02 c 0.358,0.019 0.716,0.019 1.074,0 5.474,-0.297 9.672,-4.975 9.375,-10.449 V 10.464 c 0.019,-0.358 0.019,-0.716 0,-1.074 -0.297,-5.474 -4.975,-9.672 -10.449,-9.375 h -175.02 c -0.358,-0.019 -0.716,-0.019 -1.074,0 -5.474,0.297 -9.672,4.975 -9.375,10.449 z M 194.22,20.913 h 154.122 v 83.592 H 194.22 Z"
   inkscape:connector-curvature="0"
   style="fill:#ffffff" />

			<path
   id="path5614"
   d="m 421.486,282.137 v -104.49 c 0.019,-0.358 0.019,-0.716 0,-1.074 -0.297,-5.474 -4.975,-9.672 -10.449,-9.375 H 183.771 c -0.358,-0.019 -0.716,-0.019 -1.074,0 -5.474,0.297 -9.672,4.975 -9.375,10.449 v 104.49 c -0.019,0.358 -0.019,0.716 0,1.074 0.297,5.474 4.975,9.672 10.449,9.375 h 227.265 c 0.358,0.019 0.716,0.019 1.074,0 5.475,-0.296 9.672,-4.975 9.376,-10.449 z M 400.588,271.688 H 194.22 v -83.592 h 206.367 v 83.592 z"
   inkscape:connector-curvature="0"
   style="fill:#ffffff" />

			<path
   id="path5616"
   d="m 369.241,344.831 c 0.019,-0.358 0.019,-0.716 0,-1.074 -0.297,-5.474 -4.975,-9.672 -10.449,-9.375 h -175.02 c -0.358,-0.019 -0.716,-0.019 -1.074,0 -5.474,0.297 -9.672,4.975 -9.375,10.449 v 104.49 c -0.019,0.358 -0.019,0.716 0,1.074 0.297,5.474 4.975,9.672 10.449,9.375 h 175.02 c 0.358,0.019 0.716,0.019 1.074,0 5.474,-0.297 9.672,-4.975 9.375,-10.449 z m -20.898,94.041 H 194.22 V 355.28 h 154.122 v 83.592 z"
   inkscape:connector-curvature="0"
   style="fill:#ffffff" />

			<path
   id="path5618"
   d="M 129.384,46.565 C 123.902,22.068 99.599,6.653 75.102,12.136 54.356,16.778 39.6,35.181 39.575,56.439 c -0.533,21.12 13.888,39.692 34.482,44.408 v 84.637 c -24.526,5.352 -40.07,29.572 -34.718,54.098 3.789,17.365 17.353,30.929 34.718,34.718 v 84.637 c -20.594,4.716 -35.015,23.288 -34.482,44.408 0.029,25.103 20.402,45.43 45.505,45.401 25.103,-0.029 45.43,-20.402 45.401,-45.505 C 130.457,381.982 115.7,363.58 94.955,358.937 V 274.3 c 20.688,-4.684 35.281,-23.199 35.004,-44.408 0.277,-21.21 -14.316,-39.724 -35.004,-44.408 v -84.637 c 24.497,-5.482 39.912,-29.785 34.429,-54.282 z m -19.278,356.78 c -0.284,13.645 -11.429,24.558 -25.078,24.555 -13.561,0 -24.555,-10.994 -24.555,-24.555 0,-13.561 10.994,-24.555 24.555,-24.555 13.649,-0.003 24.794,10.91 25.078,24.555 z m -0.507,-173.468 c 0.009,13.561 -10.978,24.562 -24.539,24.571 -0.01,0 -0.021,0 -0.031,0 -13.357,-0.284 -24.036,-11.195 -24.033,-24.555 -0.003,-13.36 10.676,-24.271 24.033,-24.555 13.561,-0.009 24.562,10.977 24.57,24.539 z M 85.028,80.994 C 71.671,80.71 60.993,69.799 60.996,56.439 60.993,43.079 71.672,32.168 85.029,31.884 c 13.648,-0.003 24.793,10.91 25.078,24.555 -0.285,13.646 -11.43,24.558 -25.079,24.555 z"
   inkscape:connector-curvature="0"
   style="fill:#ffffff" />

			<path
   id="path5620"
   d="M 215.118,57.484 H 275.2 c 5.771,0 10.449,-4.678 10.449,-10.449 0,-5.771 -4.678,-10.449 -10.449,-10.449 h -60.082 c -5.771,0 -10.449,4.678 -10.449,10.449 0,5.771 4.678,10.449 10.449,10.449 z"
   inkscape:connector-curvature="0"
   style="fill:#ffffff" />

			<path
   id="path5622"
   d="M 327.445,67.933 H 215.118 c -5.771,0 -10.449,4.678 -10.449,10.449 0,5.771 4.678,10.449 10.449,10.449 h 112.327 c 5.771,0 10.449,-4.678 10.449,-10.449 0,-5.771 -4.678,-10.449 -10.449,-10.449 z"
   inkscape:connector-curvature="0"
   style="fill:#ffffff" />

			<path
   id="path5624"
   d="M 215.118,224.668 H 275.2 c 5.771,0 10.449,-4.678 10.449,-10.449 0,-5.771 -4.678,-10.449 -10.449,-10.449 h -60.082 c -5.771,0 -10.449,4.678 -10.449,10.449 0,5.771 4.678,10.449 10.449,10.449 z"
   inkscape:connector-curvature="0"
   style="fill:#ffffff" />

			<path
   id="path5626"
   d="m 215.118,256.015 h 112.327 c 5.771,0 10.449,-4.678 10.449,-10.449 0,-5.771 -4.678,-10.449 -10.449,-10.449 H 215.118 c -5.771,0 -10.449,4.678 -10.449,10.449 0,5.771 4.678,10.449 10.449,10.449 z"
   inkscape:connector-curvature="0"
   style="fill:#ffffff" />

			<path
   id="path5628"
   d="M 215.118,391.852 H 275.2 c 5.771,0 10.449,-4.678 10.449,-10.449 0,-5.771 -4.678,-10.449 -10.449,-10.449 h -60.082 c -5.771,0 -10.449,4.678 -10.449,10.449 0,5.771 4.678,10.449 10.449,10.449 z"
   inkscape:connector-curvature="0"
   style="fill:#ffffff" />

			<path
   id="path5630"
   d="m 215.118,423.198 h 112.327 c 5.771,0 10.449,-4.678 10.449,-10.449 0,-5.771 -4.678,-10.449 -10.449,-10.449 H 215.118 c -5.771,0 -10.449,4.678 -10.449,10.449 0,5.771 4.678,10.449 10.449,10.449 z"
   inkscape:connector-curvature="0"
   style="fill:#ffffff" />

		</g>

	</g>

</g>
    <g
       id="g5638"
       style="fill:#ffffff">
</g>
    <g
       id="g5640"
       style="fill:#ffffff">
</g>
    <g
       id="g5642"
       style="fill:#ffffff">
</g>
    <g
       id="g5644"
       style="fill:#ffffff">
</g>
    <g
       id="g5646"
       style="fill:#ffffff">
</g>
    <g
       id="g5648"
       style="fill:#ffffff">
</g>
    <g
       id="g5650"
       style="fill:#ffffff">
</g>
    <g
       id="g5652"
       style="fill:#ffffff">
</g>
    <g
       id="g5654"
       style="fill:#ffffff">
</g>
    <g
       id="g5656"
       style="fill:#ffffff">
</g>
    <g
       id="g5658"
       style="fill:#ffffff">
</g>
    <g
       id="g5660"
       style="fill:#ffffff">
</g>
    <g
       id="g5662"
       style="fill:#ffffff">
</g>
    <g
       id="g5664"
       style="fill:#ffffff">
</g>
    <g
       id="g5666"
       style="fill:#ffffff">
</g>
  </g>
</svg>
