<?xml version="1.0" encoding="iso-8859-1"?>
<!-- Generator: Adobe Illustrator 16.0.0, SVG Export Plug-In . SVG Version: 6.00 Build 0)  -->
<!DOCTYPE svg PUBLIC "-//W3C//DTD SVG 1.1//EN" "http://www.w3.org/Graphics/SVG/1.1/DTD/svg11.dtd">
<svg xmlns="http://www.w3.org/2000/svg" xmlns:xlink="http://www.w3.org/1999/xlink" version="1.1" id="Capa_1" x="0px" y="0px" width="512px" height="512px" viewBox="0 0 800 800" style="enable-background:new 0 0 800 800;" xml:space="preserve">
<g>
	<path d="M366.692,324.653c-7.494-6.792-12.896-15.755-15.489-25.694c-40.846,32.682-89.1,76.411-89.1,76.411   S320.356,348.937,366.692,324.653z M418.692,235.2c9.476,2.54,18.081,7.27,24.792,13.911   c19.584-45.334,38.949-97.939,38.949-97.939S447.514,194.9,418.692,235.2z M433.18,286.242c0-15.409-12.896-27.908-28.887-27.908   c-15.903,0-28.8,12.5-28.8,27.908c0,15.407,12.896,27.843,28.8,27.843C420.283,314.085,433.18,301.649,433.18,286.242z    M110,280.512C110,125.868,240.078,0,400.001,0C559.968,0,690,125.868,690,280.512c0,109.093-64.723,203.882-158.963,250.172   c-0.48-20.94-5.947-40.689-15.358-58.071c58.603-33.16,100.907-90.234,111.822-157.66h-30.303h-8.867v-62.87h9.498h30.562   c-12.896-97.482-91.036-175.325-190.596-191.254v29.124v12.781h-65.092V88.932v-29.73   C268.18,71.246,185.005,151.107,171.608,252.083h30.586h8.801v62.87h-8.191h-30.303c11.045,68.12,53.939,125.868,113.477,158.896   c-9.171,17.342-14.487,36.979-14.813,57.834C175.747,485.721,110,390.452,110,280.512z M454.551,635.568   c14.878,5.122,27.688,13.304,40.062,22.852c36.512,28.19,59.626,75.825,69.275,141.58H503.24   c-5.794-33.028-15.729-59.092-29.453-77.452c1.634,19.836,3.855,48.09,5.882,77.452h-51.543l-16.512-172.852   C426.186,628.125,440.717,630.795,454.551,635.568z M237.464,800c10.238-62.694,31.195-107.726,63.655-136.394   c8.583-7.596,17.667-14.541,27.514-20.29c5.644-3.277,11.611-5.926,17.733-8.097c14.987-5.338,30.934-7.876,46.814-8.42   L372.486,800h-47.839c1.48-31.401,2.854-59.051,3.769-77.495c-13.397,18.273-23.505,44.378-29.976,77.495H237.464z    M316.129,533.726c0-46.812,38.037-84.744,84.982-84.744c46.926,0,85.005,37.934,85.005,84.744   c0,46.83-38.079,84.742-85.005,84.742C354.166,618.468,316.129,580.556,316.129,533.726z" fill="#FFFFFF"/>
</g>
<g>
</g>
<g>
</g>
<g>
</g>
<g>
</g>
<g>
</g>
<g>
</g>
<g>
</g>
<g>
</g>
<g>
</g>
<g>
</g>
<g>
</g>
<g>
</g>
<g>
</g>
<g>
</g>
<g>
</g>
</svg>
