<?xml version="1.0" encoding="iso-8859-1"?>
<!-- Generator: Adobe Illustrator 19.0.0, SVG Export Plug-In . SVG Version: 6.00 Build 0)  -->
<svg xmlns="http://www.w3.org/2000/svg" xmlns:xlink="http://www.w3.org/1999/xlink" version="1.1" id="Capa_1" x="0px" y="0px" viewBox="0 0 459.785 459.785" style="enable-background:new 0 0 459.785 459.785;" xml:space="preserve" width="512px" height="512px">
<g>
	<g>
		<g>
			<path d="M173.322,114.954c-0.019,0.358-0.019,0.716,0,1.074c0.297,5.474,4.975,9.672,10.449,9.375h175.02     c0.358,0.019,0.716,0.019,1.074,0c5.474-0.297,9.672-4.975,9.375-10.449V10.464c0.019-0.358,0.019-0.716,0-1.074     c-0.297-5.474-4.975-9.672-10.449-9.375h-175.02c-0.358-0.019-0.716-0.019-1.074,0c-5.474,0.297-9.672,4.975-9.375,10.449     V114.954z M194.22,20.913h154.122v83.592H194.22V20.913z" fill="#FFFFFF"/>
			<path d="M421.486,282.137v-104.49c0.019-0.358,0.019-0.716,0-1.074c-0.297-5.474-4.975-9.672-10.449-9.375H183.771     c-0.358-0.019-0.716-0.019-1.074,0c-5.474,0.297-9.672,4.975-9.375,10.449v104.49c-0.019,0.358-0.019,0.716,0,1.074     c0.297,5.474,4.975,9.672,10.449,9.375h227.265c0.358,0.019,0.716,0.019,1.074,0C417.585,292.29,421.782,287.611,421.486,282.137     z M400.588,271.688H194.22v-83.592h206.367V271.688z" fill="#FFFFFF"/>
			<path d="M369.241,344.831c0.019-0.358,0.019-0.716,0-1.074c-0.297-5.474-4.975-9.672-10.449-9.375h-175.02     c-0.358-0.019-0.716-0.019-1.074,0c-5.474,0.297-9.672,4.975-9.375,10.449v104.49c-0.019,0.358-0.019,0.716,0,1.074     c0.297,5.474,4.975,9.672,10.449,9.375h175.02c0.358,0.019,0.716,0.019,1.074,0c5.474-0.297,9.672-4.975,9.375-10.449V344.831z      M348.343,438.872H194.22V355.28h154.122V438.872z" fill="#FFFFFF"/>
			<path d="M129.384,46.565c-5.482-24.497-29.785-39.912-54.282-34.429C54.356,16.778,39.6,35.181,39.575,56.439     c-0.533,21.12,13.888,39.692,34.482,44.408v84.637c-24.526,5.352-40.07,29.572-34.718,54.098     c3.789,17.365,17.353,30.929,34.718,34.718v84.637c-20.594,4.716-35.015,23.288-34.482,44.408     c0.029,25.103,20.402,45.43,45.505,45.401c25.103-0.029,45.43-20.402,45.401-45.505c-0.024-21.259-14.781-39.661-35.526-44.304     V274.3c20.688-4.684,35.281-23.199,35.004-44.408c0.277-21.21-14.316-39.724-35.004-44.408v-84.637     C119.452,95.365,134.867,71.062,129.384,46.565z M110.106,403.345c-0.284,13.645-11.429,24.558-25.078,24.555     c-13.561,0-24.555-10.994-24.555-24.555c0-13.561,10.994-24.555,24.555-24.555C98.677,378.787,109.822,389.7,110.106,403.345z      M109.599,229.877c0.009,13.561-10.978,24.562-24.539,24.571c-0.01,0-0.021,0-0.031,0c-13.357-0.284-24.036-11.195-24.033-24.555     c-0.003-13.36,10.676-24.271,24.033-24.555C98.59,205.329,109.591,216.315,109.599,229.877z M85.028,80.994     C71.671,80.71,60.993,69.799,60.996,56.439c-0.003-13.36,10.676-24.271,24.033-24.555c13.648-0.003,24.793,10.91,25.078,24.555     C109.822,70.085,98.677,80.997,85.028,80.994z" fill="#FFFFFF"/>
			<path d="M215.118,57.484H275.2c5.771,0,10.449-4.678,10.449-10.449s-4.678-10.449-10.449-10.449h-60.082     c-5.771,0-10.449,4.678-10.449,10.449S209.347,57.484,215.118,57.484z" fill="#FFFFFF"/>
			<path d="M327.445,67.933H215.118c-5.771,0-10.449,4.678-10.449,10.449s4.678,10.449,10.449,10.449h112.327     c5.771,0,10.449-4.678,10.449-10.449S333.216,67.933,327.445,67.933z" fill="#FFFFFF"/>
			<path d="M215.118,224.668H275.2c5.771,0,10.449-4.678,10.449-10.449s-4.678-10.449-10.449-10.449h-60.082     c-5.771,0-10.449,4.678-10.449,10.449S209.347,224.668,215.118,224.668z" fill="#FFFFFF"/>
			<path d="M215.118,256.015h112.327c5.771,0,10.449-4.678,10.449-10.449s-4.678-10.449-10.449-10.449H215.118     c-5.771,0-10.449,4.678-10.449,10.449S209.347,256.015,215.118,256.015z" fill="#FFFFFF"/>
			<path d="M215.118,391.852H275.2c5.771,0,10.449-4.678,10.449-10.449s-4.678-10.449-10.449-10.449h-60.082     c-5.771,0-10.449,4.678-10.449,10.449S209.347,391.852,215.118,391.852z" fill="#FFFFFF"/>
			<path d="M215.118,423.198h112.327c5.771,0,10.449-4.678,10.449-10.449s-4.678-10.449-10.449-10.449H215.118     c-5.771,0-10.449,4.678-10.449,10.449S209.347,423.198,215.118,423.198z" fill="#FFFFFF"/>
		</g>
	</g>
</g>
<g>
</g>
<g>
</g>
<g>
</g>
<g>
</g>
<g>
</g>
<g>
</g>
<g>
</g>
<g>
</g>
<g>
</g>
<g>
</g>
<g>
</g>
<g>
</g>
<g>
</g>
<g>
</g>
<g>
</g>
</svg>
