<?xml version="1.0" encoding="UTF-8" standalone="no"?>
<svg
   xmlns:dc="http://purl.org/dc/elements/1.1/"
   xmlns:cc="http://creativecommons.org/ns#"
   xmlns:rdf="http://www.w3.org/1999/02/22-rdf-syntax-ns#"
   xmlns:svg="http://www.w3.org/2000/svg"
   xmlns="http://www.w3.org/2000/svg"
   version="1.1"
   id="svg22567"
   viewBox="0 0 238.91974 106.57062"
   height="30.076597mm"
   width="67.428459mm">
  <defs
     id="defs22569" />
  <metadata
     id="metadata22572">
    <rdf:RDF>
      <cc:Work
         rdf:about="">
        <dc:format>image/svg+xml</dc:format>
        <dc:type
           rdf:resource="http://purl.org/dc/dcmitype/StillImage" />
        <dc:title></dc:title>
      </cc:Work>
    </rdf:RDF>
  </metadata>
  <g
     transform="translate(-169.11155,-564.79118)"
     id="layer1">
    <g
       transform="matrix(1.25,0,0,-1.25,181.80155,606.08493)"
       id="g12810">
      <path
         id="path12812"
         style="fill:#ffffff;fill-opacity:1;fill-rule:nonzero;stroke:none"
         d="m 0,0 0,-23.336 -10.152,0 0,56.371 36.595,0 0,-8.943 -26.443,0 0,-15.149 24.169,0 L 24.169,0 0,0 Z" />
    </g>
    <g
       transform="matrix(1.25,0,0,-1.25,407.52605,617.07368)"
       id="g12814">
      <path
         id="path12816"
         style="fill:#ffffff;fill-opacity:1;fill-rule:nonzero;stroke:none"
         d="m 0,0 c 0,-10 -6.9,-15.229 -17.283,-15.229 -10.303,0 -17.194,5.682 -17.194,15.608 l 0,9.926 c 0,9.925 6.891,15.687 17.194,15.687 C -6.9,25.992 0,20.689 0,10.684 l 0,-0.682 -8.865,0 c 0,5.684 -3.112,8.031 -8.418,8.031 -5.223,0 -8.254,-2.722 -8.254,-8.486 l 0,-8.332 c 0,-5.764 3.031,-8.488 8.254,-8.488 5.306,0 8.418,2.271 8.418,7.957 L 0,0.684 0,0 Z" />
    </g>
    <g
       transform="matrix(1.25,0,0,-1.25,253.34143,614.60781)"
       id="g12818">
      <path
         id="path12820"
         style="fill:#ffffff;fill-opacity:1;fill-rule:nonzero;stroke:none"
         d="m 0,0 -10.605,0 c -5.534,0 -6.823,-2.578 -6.823,-5.23 0,-2.803 1.742,-4.471 4.776,-4.471 2.498,0 4.621,0.758 6.898,1.971 L 0,-4.625 0,0 Z m 0,-16.518 0,4.62 -4.166,-2.272 c -3.713,-1.969 -6.592,-2.883 -10.537,-2.883 -7.117,0 -11.893,4.623 -11.893,11.367 0,8.334 6.516,12.202 14.78,12.202 l 11.896,0 0,2.345 c 0,5.157 -2.959,7.655 -8.189,7.655 -5.454,0 -8.637,-2.274 -8.637,-6.967 l -8.941,0 0,0.523 c 0,9.02 7.126,14.096 17.505,14.096 C 2.73,24.168 9.02,18.717 9.02,9.17 l 0,-25.688 -9.02,0 z" />
    </g>
    <g
       transform="matrix(1.25,0,0,-1.25,297.60417,635.25481)"
       id="g12822">
      <path
         id="path12824"
         style="fill:#ffffff;fill-opacity:1;fill-rule:nonzero;stroke:none"
         d="m 0,0 c -9.246,0 -15.23,4.619 -15.23,13.713 l 0,18.412 -6.065,0 0,7.805 6.065,0 0,10.836 9.394,0 0,-10.836 11.061,0 0,-7.805 -11.061,0 0,-17.881 c 0,-4.701 2.123,-6.291 6.586,-6.291 l 4.703,0 L 5.453,0 0,0 Z" />
    </g>
    <g
       transform="matrix(1.25,0,0,-1.25,343.74668,605.0448)"
       id="g12826">
      <path
         id="path12828"
         style="fill:#ffffff;fill-opacity:1;fill-rule:nonzero;stroke:none"
         d="m 0,0 c 0,5.687 -3.332,8.791 -8.867,8.791 -5.602,0 -9.012,-3.104 -9.012,-8.867 l 0,-0.981 L 0,-1.057 0,0 Z m 8.564,-11.592 c 0,-8.107 -6.972,-13.26 -17.505,-13.26 -10.303,0 -17.649,5.608 -17.649,15.379 l 0,9.473 c 0,10.08 7.346,16.369 17.649,16.369 10.384,0 17.578,-5.99 17.578,-16.523 l 0,-7.043 -26.516,0 0,-1.971 c 0,-5.684 3.787,-8.184 9.012,-8.184 5.16,0 8.642,1.819 8.642,6.139 l 8.789,0 0,-0.379 z" />
    </g>
    <g
       transform="matrix(1.25,0,0,-1.25,210.47517,666.1093)"
       id="g12830">
      <path
         id="path12832"
         style="fill:#ffffff;fill-opacity:1;fill-rule:nonzero;stroke:none"
         d="M 0,0 0,12.498 -3.917,0 l -2.706,0 -3.894,12.476 0,-12.476 -2.751,0 0,16.37 4.445,0 3.609,-12.189 3.674,12.189 4.356,0 L 2.816,0 0,0 Z" />
    </g>
    <g
       transform="matrix(1.25,0,0,-1.25,227.24893,657.66568)"
       id="g12834">
      <path
         id="path12836"
         style="fill:#ffffff;fill-opacity:1;fill-rule:nonzero;stroke:none"
         d="M 0,0 C 0,1.738 -1.1,2.706 -2.684,2.706 -4.269,2.706 -5.369,1.738 -5.369,0 l 0,-2.002 c 0,-1.717 1.1,-2.707 2.685,-2.707 C -1.1,-4.709 0,-3.74 0,-2.002 L 0,0 Z m 2.552,-2.267 c 0,-2.925 -2.178,-4.73 -5.236,-4.73 -3.059,0 -5.237,1.805 -5.237,4.73 l 0,2.531 c 0,2.926 2.178,4.753 5.237,4.753 3.058,0 5.236,-1.827 5.236,-4.753 l 0,-2.531 z" />
    </g>
    <g
       transform="matrix(1.25,0,0,-1.25,237.09268,665.1743)"
       id="g12838">
      <path
         id="path12840"
         style="fill:#ffffff;fill-opacity:1;fill-rule:nonzero;stroke:none"
         d="m 0,0 0,-0.484 c 0,-1.584 0.66,-2.464 2.75,-2.464 1.849,0 2.817,0.506 2.817,1.65 C 5.567,-0.308 4.797,0 3.586,0 L 0,0 Z m 2.53,5.391 c 1.408,0 2.201,0.528 2.201,1.716 0,1.144 -0.726,1.695 -1.981,1.695 l -1.012,0 c -1.254,0 -2.024,-0.397 -2.024,-1.739 0,-1.167 0.726,-1.672 1.98,-1.672 l 0.836,0 z M -0.484,3.454 c -0.528,0 -0.792,-0.241 -0.792,-0.769 0,-0.462 0.286,-0.727 0.748,-0.727 l 4.488,0 c 2.685,0 4.159,-1.034 4.159,-3.19 0,-2.42 -2.178,-3.718 -5.325,-3.718 -3.564,0 -5.17,1.605 -5.17,4.4 l 0,1.166 c -0.727,0.33 -1.145,0.99 -1.145,2.069 0,1.253 0.661,2.002 1.563,2.244 0,0 -0.836,0.66 -0.836,2.2 0,2.465 1.716,3.719 4.268,3.719 l 6.711,0 0,-2.244 -1.65,0 c 0,0 0.572,-0.462 0.572,-1.584 0,-2.223 -1.628,-3.566 -4.202,-3.566 l -3.389,0 z" />
    </g>
    <path
       id="path12842"
       style="fill:#ffffff;fill-opacity:1;fill-rule:nonzero;stroke:none"
       d="m 249.6038,651.61468 3.41125,0 0,14.495 -3.41125,0 0,-14.495 z m 3.60375,-3.905 c 0,1.01625 -0.7975,1.5675 -1.8975,1.5675 -1.0725,0 -1.8975,-0.55125 -1.8975,-1.5675 l 0,-0.605 c 0,-1.045 0.825,-1.59625 1.8975,-1.59625 1.1,0 1.8975,0.55125 1.8975,1.59625 l 0,0.605 z" />
    <g
       transform="matrix(1.25,0,0,-1.25,273.97067,656.28993)"
       id="g12844">
      <path
         id="path12846"
         style="fill:#ffffff;fill-opacity:1;fill-rule:nonzero;stroke:none"
         d="m 0,0 -1.848,1.034 c -0.485,0.264 -1.012,0.44 -1.629,0.44 -1.1,0 -1.826,-0.748 -1.826,-1.892 l 0,-3.301 c 0,-1.166 0.726,-1.914 1.826,-1.914 0.617,0 1.144,0.197 1.629,0.462 L 0,-4.159 0,0 Z m 0.022,-7.855 0,1.253 -1.342,-0.725 c -0.902,-0.506 -1.739,-0.683 -2.597,-0.683 -2.398,0 -3.982,1.607 -3.982,3.961 l 0,3.895 c 0,2.332 1.628,4.005 4.026,4.005 0.858,0 1.651,-0.177 2.553,-0.683 L 0,2.442 l 0,6.073 2.618,0 0,-16.37 -2.596,0 z" />
    </g>
    <g
       transform="matrix(1.25,0,0,-1.25,289.80992,660.11318)"
       id="g12848">
      <path
         id="path12850"
         style="fill:#ffffff;fill-opacity:1;fill-rule:nonzero;stroke:none"
         d="m 0,0 -3.08,0 c -1.607,0 -1.981,-0.748 -1.981,-1.519 0,-0.813 0.507,-1.297 1.387,-1.297 0.726,0 1.342,0.219 2.002,0.572 L 0,-1.343 0,0 Z m 0,-4.797 0,1.342 -1.21,-0.66 c -1.078,-0.572 -1.914,-0.836 -3.059,-0.836 -2.068,0 -3.454,1.343 -3.454,3.301 0,2.42 1.892,3.543 4.291,3.543 l 3.454,0 0,0.681 c 0,1.496 -0.858,2.223 -2.376,2.223 -1.584,0 -2.508,-0.66 -2.508,-2.025 l -2.597,0 0,0.154 c 0,2.619 2.068,4.093 5.083,4.093 3.168,0 4.995,-1.584 4.995,-4.357 l 0,-7.459 -2.619,0 z" />
    </g>
    <g
       transform="matrix(1.25,0,0,-1.25,305.1548,656.31805)"
       id="g12852">
      <path
         id="path12854"
         style="fill:#ffffff;fill-opacity:1;fill-rule:nonzero;stroke:none"
         d="m 0,0 c 0,1.232 -0.858,1.805 -2.354,1.805 -1.497,0 -2.267,-0.617 -2.267,-1.431 0,-2.662 7.284,-0.021 7.284,-4.774 0,-2.267 -1.959,-3.609 -5.017,-3.609 -3.213,0 -5.061,1.43 -5.061,3.784 l 0,0.132 2.685,0 c 0,-1.231 0.879,-1.803 2.42,-1.803 1.518,0 2.376,0.593 2.376,1.429 0,2.399 -7.283,-0.044 -7.283,4.776 0,2.288 1.914,3.629 4.929,3.629 3.19,0 4.907,-1.452 4.907,-3.806 L 2.619,0 0,0 Z" />
    </g>
    <g
       transform="matrix(1.25,0,0,-1.25,336.01055,658.95843)"
       id="g12856">
      <path
         id="path12858"
         style="fill:#ffffff;fill-opacity:1;fill-rule:nonzero;stroke:none"
         d="m 0,0 c 0,-3.872 -2.618,-5.963 -6.667,-5.963 -3.718,0 -6.799,1.958 -6.799,6.734 l 0,3.278 c 0,4.797 3.059,6.777 6.799,6.777 C -2.618,10.826 0,8.713 0,4.841 l 0,-0.264 -2.992,0 c 0,2.508 -1.342,3.652 -3.653,3.652 -2.068,0 -3.851,-0.99 -3.851,-4.356 l 0,-2.904 c 0,-3.367 1.783,-4.358 3.851,-4.358 2.311,0 3.653,1.189 3.653,3.653 L 0,0.264 0,0 Z" />
    </g>
    <g
       transform="matrix(1.25,0,0,-1.25,339.1978,666.1093)"
       id="g12860">
      <path
         id="path12862"
         style="fill:#ffffff;fill-opacity:1;fill-rule:nonzero;stroke:none"
         d="m 0,0 0,11.596 2.663,0 0,-1.651 0.505,0.506 c 0.859,0.815 1.717,1.233 2.861,1.233 l 0.682,0 0,-2.706 -0.66,0 C 5.039,8.978 4.379,8.779 3.609,8.186 L 2.707,7.437 2.707,0 0,0 Z" />
    </g>
    <g
       transform="matrix(1.25,0,0,-1.25,358.97192,666.1093)"
       id="g12864">
      <path
         id="path12866"
         style="fill:#ffffff;fill-opacity:1;fill-rule:nonzero;stroke:none"
         d="M 0,0 0,1.342 -1.232,0.616 c -0.814,-0.506 -1.651,-0.748 -2.575,-0.748 -2.266,0 -3.652,1.518 -3.652,3.763 l 0,7.965 2.684,0 0,-7.635 c 0,-1.013 0.594,-1.694 1.541,-1.694 0.571,0 1.033,0.219 1.518,0.505 l 1.694,0.991 0,7.833 2.662,0 L 2.64,0 0,0 Z" />
    </g>
    <g
       transform="matrix(1.25,0,0,-1.25,365.35005,666.1093)"
       id="g12868">
      <path
         id="path12870"
         style="fill:#ffffff;fill-opacity:1;fill-rule:nonzero;stroke:none"
         d="m 0,0 0,2.244 6.381,7.085 -6.403,0 0,2.267 9.857,0 0,-2.244 -6.336,-7.108 6.446,0 L 9.945,0 0,0 Z" />
    </g>
    <g
       transform="matrix(1.25,0,0,-1.25,389.63417,657.33618)"
       id="g12872">
      <path
         id="path12874"
         style="fill:#ffffff;fill-opacity:1;fill-rule:nonzero;stroke:none"
         d="m 0,0 c 0,1.65 -0.968,2.553 -2.575,2.553 -1.628,0 -2.618,-0.903 -2.618,-2.574 l 0,-0.287 5.193,0 L 0,0 Z m 2.486,-3.366 c 0,-2.355 -2.024,-3.851 -5.083,-3.851 -2.992,0 -5.126,1.629 -5.126,4.467 l 0,2.75 c 0,2.927 2.134,4.753 5.126,4.753 3.015,0 5.105,-1.738 5.105,-4.797 l 0,-2.046 -7.701,0 0,-0.572 c 0,-1.65 1.1,-2.376 2.618,-2.376 1.497,0 2.509,0.528 2.509,1.782 l 2.552,0 0,-0.11 z" />
    </g>
    <g
       transform="matrix(1.25,0,0,-1.25,404.7038,656.31805)"
       id="g12876">
      <path
         id="path12878"
         style="fill:#ffffff;fill-opacity:1;fill-rule:nonzero;stroke:none"
         d="m 0,0 c 0,1.232 -0.858,1.805 -2.354,1.805 -1.497,0 -2.267,-0.617 -2.267,-1.431 0,-2.662 7.283,-0.021 7.283,-4.774 0,-2.267 -1.958,-3.609 -5.016,-3.609 -3.213,0 -5.061,1.43 -5.061,3.784 l 0,0.132 2.684,0 c 0,-1.231 0.88,-1.803 2.42,-1.803 1.519,0 2.377,0.593 2.377,1.429 0,2.399 -7.283,-0.044 -7.283,4.776 0,2.288 1.914,3.629 4.928,3.629 3.191,0 4.907,-1.452 4.907,-3.806 L 2.618,0 0,0 Z" />
    </g>
  </g>
</svg>
