<?xml version="1.0" encoding="UTF-8" standalone="no"?>
<!-- Created with Inkscape (http://www.inkscape.org/) -->

<svg
   xmlns:dc="http://purl.org/dc/elements/1.1/"
   xmlns:cc="http://creativecommons.org/ns#"
   xmlns:rdf="http://www.w3.org/1999/02/22-rdf-syntax-ns#"
   xmlns:svg="http://www.w3.org/2000/svg"
   xmlns="http://www.w3.org/2000/svg"
   xmlns:sodipodi="http://sodipodi.sourceforge.net/DTD/sodipodi-0.dtd"
   xmlns:inkscape="http://www.inkscape.org/namespaces/inkscape"
   width="67.428284mm"
   height="30.075888mm"
   viewBox="0 0 67.428284 30.075888"
   version="1.1"
   id="svg8"
   inkscape:version="0.92.3 (2405546, 2018-03-11)"
   sodipodi:docname="logo_colorido.svg">
  <defs
     id="defs2">
    <clipPath
       id="clipPath831"
       clipPathUnits="userSpaceOnUse">
      <path
         inkscape:connector-curvature="0"
         id="path829"
         d="M 0,841.89 H 595.28 V 0 H 0 Z" />
    </clipPath>
    <clipPath
       id="clipPath839"
       clipPathUnits="userSpaceOnUse">
      <path
         inkscape:connector-curvature="0"
         id="path837"
         d="m 0.015,861.89 h 127.129 v 91.156 H 0.015 Z" />
    </clipPath>
    <clipPath
       id="clipPath847"
       clipPathUnits="userSpaceOnUse">
      <path
         inkscape:connector-curvature="0"
         id="path845"
         d="m 42.512,841.331 c -5.606,9.838 -9.953,22.684 -15.523,35.197 -5.564,12.512 -11.954,23.114 -30.879,30.43 -17.465,6.752 -28.063,8.762 -51.58,12.857 -0.069,0.014 -0.168,-0.035 -0.238,-0.021 l -7.331,-4.377 c 0.049,-0.01 0.061,-0.088 0.109,-0.098 31.663,-5.316 41.918,-8.918 51.524,-12.48 9.833,-3.651 21.816,-9.381 28.256,-21.717 6.44,-12.336 10.021,-22.439 14.025,-32.389 4.002,-9.947 8.432,-17.615 13.754,-23.689 5.323,-6.076 15.079,-7.67 23.32,-8.469 1.67,-0.162 3.415,-0.107 5.197,0.051 0.058,0.006 0.214,0.07 0.272,0.076 l 7.57,4.545 c 0,0 -0.13,0.072 -0.239,0.051 -0.808,-0.151 -4.582,-0.662 -12.406,1 -17.347,3.691 -20.228,9.193 -25.831,19.033 m 54.43,-10.314 c -7.07,0.234 -17.781,1.265 -25.526,3.89 -10.522,3.571 -17.971,13.137 -23.883,26.93 -5.911,13.791 -10.229,25.133 -18.663,36.914 -8.435,11.779 -19.861,16.135 -31.522,19.885 -11.02,3.543 -26.716,7.318 -39.057,9.386 -0.054,0.01 -0.188,-0.031 -0.244,-0.023 l -5.555,-3.316 c 0.039,-0.006 0.078,-0.082 0.116,-0.09 7.922,-1.51 22.841,-4.635 36.798,-9.098 20.221,-6.469 28.859,-12.32 37.201,-24.174 6.535,-9.281 15.374,-35.633 23.182,-49.009 7.804,-13.377 23.531,-15.096 28.329,-15.715 4.896,-0.633 10.54,-0.588 10.727,-0.516 0.081,-0.002 0.26,0.049 0.272,0.047 l 8.002,4.805 c -0.05,0.002 -0.13,0.084 -0.177,0.084 M 63.633,811.003 c -14.284,-1.086 -24.505,6.148 -30.89,16.851 -6.417,10.756 -10.618,22.276 -17.345,39.209 -6.723,16.93 -12.781,22.936 -30.694,29.383 -17.161,6.172 -34.547,9.383 -57.426,13.088 -0.055,0.008 -0.175,-0.041 -0.231,-0.033 l -9.335,-5.596 0.134,-0.097 c 6.734,-0.93 35.602,-5.082 60.471,-13.674 C 0.496,882.47 5.2,870.679 9.569,860.28 c 4.369,-10.4 4.58,-15.086 12.905,-30.613 7.967,-14.855 15.293,-25.787 31.111,-24.826 0.046,0 0.162,0.074 0.207,0.078 l 9.996,6.002 c -0.043,-0.004 -0.112,0.084 -0.155,0.082 m 76.005,45.644 c -6.644,0.059 -15.983,0.551 -22.037,1.055 -9.13,0.766 -16.757,1.777 -25.34,6.07 -8.58,4.297 -12.511,14.465 -14.37,19.872 -1.863,5.408 -5.788,18.796 -10.222,32.261 -3.978,12.082 -9.202,15.149 -16.193,18.364 -0.054,0.025 -0.223,0.023 -0.277,0.046 l -5.054,-3.269 c 0.048,-0.029 0.073,-0.162 0.122,-0.192 4.971,-2.945 8.878,-6.375 12.258,-11.113 6.646,-9.318 9.625,-26.076 13.196,-35.83 4.274,-11.67 7.752,-18.627 15.161,-23.687 8.201,-5.6 21.713,-6.426 30.953,-6.891 6.138,-0.307 12.405,-0.172 16.454,-0.035 0.044,0.002 0.145,0.064 0.19,0.066 l 5.333,3.203 c -0.058,0 -0.116,0.079 -0.174,0.08 m -61.865,5.219 c -9.955,11.078 -14.155,27.377 -18.429,39.637 -4.505,12.928 -7.916,17.795 -18.944,24.851 -0.208,0.133 -0.42,0.272 -0.659,0.389 -0.046,0.022 -0.176,-0.004 -0.216,0.02 l -5.902,-3.821 c 0.032,-0.021 0.076,-0.144 0.109,-0.166 15.688,-10.183 22.17,-28.634 26.581,-41.675 4.406,-13.026 11.448,-25.846 21.785,-30.161 10.333,-4.314 20.908,-5.089 31.087,-5.48 3.447,-0.133 5.994,-0.1 7.864,-0.051 0.066,0.002 0.229,0.065 0.293,0.067 l 6.942,4.168 c -0.058,0 -0.105,0.068 -0.162,0.068 -4.399,-0.051 -14.476,-0.072 -19.761,0.453 -6.882,0.684 -20.632,0.627 -30.588,11.701 m 36.072,-20.662 c -7.914,-0.387 -21.246,0.32 -33.535,4.147 -14.669,4.568 -19.485,18.552 -25.477,32.916 -5.994,14.365 -9.46,21.06 -14.989,29.357 -2.788,4.184 -7.131,7.869 -12.517,11.117 -5.29,3.19 -11.595,5.979 -17.57,7.879 -11.135,3.543 -26.348,7.151 -39.133,8.729 -0.037,0.005 -0.054,-0.006 -0.242,-0.043 l -6.114,-3.594 c 0.045,-0.125 0.117,-0.113 0.186,-0.121 9.862,-1.192 33.637,-6.231 46.859,-11.922 13.878,-5.973 23.12,-14.803 28.674,-24.861 5.511,-9.979 11.065,-25.352 18.502,-39.133 7.443,-13.781 16.354,-16.006 24.308,-17.69 6.862,-1.453 15.305,-2.134 22.877,-1.814 0.058,0 0.234,0.072 0.289,0.072 l 8.098,4.865 c -0.055,-0.004 -0.158,0.098 -0.216,0.096" />
    </clipPath>
    <clipPath
       id="clipPath1143"
       clipPathUnits="userSpaceOnUse">
      <path
         inkscape:connector-curvature="0"
         id="path1141"
         d="m 0.015,861.89 h 127.129 v 91.156 H 0.015 Z" />
    </clipPath>
    <clipPath
       id="clipPath1155"
       clipPathUnits="userSpaceOnUse">
      <path
         inkscape:connector-curvature="0"
         id="path1153"
         d="M 615.291,861.848 H 742.42 v 91.156 H 615.291 Z" />
    </clipPath>
    <clipPath
       id="clipPath1171"
       clipPathUnits="userSpaceOnUse">
      <path
         inkscape:connector-curvature="0"
         id="path1169"
         d="M 0,841.89 H 595.28 V 0 H 0 Z" />
    </clipPath>
    <clipPath
       id="clipPath8475"
       clipPathUnits="userSpaceOnUse">
      <path
         inkscape:connector-curvature="0"
         id="path8473"
         d="m 0.176,0 h 127.13 V 91.046 H 0.176 Z" />
    </clipPath>
    <clipPath
       id="clipPath8487"
       clipPathUnits="userSpaceOnUse">
      <path
         inkscape:connector-curvature="0"
         id="path8485"
         d="m 46.305,69.046 c 0.049,-0.03 0.074,-0.162 0.122,-0.191 v 0 c 4.972,-2.946 8.879,-6.375 12.258,-11.114 v 0 c 6.647,-9.318 9.626,-26.076 13.197,-35.83 v 0 C 75.677,11.549 78.845,4.902 84.694,0 v 0 h 11.661 c -1.294,0.519 -2.603,1.106 -3.934,1.772 v 0 C 83.842,6.07 79.911,16.237 78.052,21.643 v 0 C 76.189,27.052 72.264,40.441 67.83,53.906 v 0 C 63.851,65.987 58.628,69.053 51.637,72.268 v 0 c -0.054,0.026 -0.224,0.024 -0.278,0.047 v 0 z M 0.176,61.7 c 4.161,-1.273 8.048,-2.632 11.298,-4.031 v 0 C 25.352,51.696 34.593,42.866 40.147,32.808 v 0 C 44.827,24.336 49.537,11.974 55.405,0 v 0 h 6.808 c -2.675,4.993 -4.856,10.601 -7.219,16.267 v 0 C 49,30.632 45.533,37.327 40.005,45.624 v 0 c -2.788,4.184 -7.131,7.869 -12.518,11.117 v 0 C 22.198,59.931 15.892,62.72 9.918,64.62 v 0 c -2.995,0.953 -6.285,1.911 -9.742,2.832 v 0 z m 33.607,-0.757 c 0.033,-0.022 0.077,-0.145 0.11,-0.167 v 0 C 49.581,50.593 56.063,32.142 60.474,19.101 v 0 C 62.781,12.28 65.811,5.516 69.658,0 v 0 h 8.156 C 67.945,11.075 63.761,27.292 59.505,39.503 v 0 C 55,52.43 51.589,57.298 40.56,64.355 v 0 c -0.208,0.133 -0.419,0.271 -0.658,0.388 v 0 c -0.023,0.01 -0.066,0.009 -0.108,0.009 v 0 c -0.045,-10e-4 -0.088,-10e-4 -0.108,0.011 v 0 z M 0.176,49.726 C 13.15,44.512 20.056,38.859 26.768,29.321 v 0 C 30.765,23.644 35.626,11.576 40.584,0 v 0 h 7.04 C 41.749,13.717 37.431,25.016 29.03,36.751 v 0 C 21.24,47.631 10.898,52.177 0.176,55.763 v 0 z m 0,-14.03 C 6.704,32.037 12.956,26.888 17.01,19.122 v 0 C 20.644,12.162 23.367,5.912 25.77,0 v 0 h 7.459 C 31.29,4.762 29.312,9.671 27.15,14.529 v 0 C 21.987,26.137 16.113,36.102 0.176,43.324 v 0 z m 0,-20.778 C 4.563,10.082 6.923,4.923 9.006,0 v 0 h 8.556 c -0.644,1.634 -1.31,3.32 -2.003,5.063 v 0 C 11.254,15.904 7.222,22.265 0.176,27.132 v 0 z" />
    </clipPath>
    <clipPath
       id="clipPath9307"
       clipPathUnits="userSpaceOnUse">
      <path
         inkscape:connector-curvature="0"
         id="path9305"
         d="m 0.176,0 h 127.13 V 91.046 H 0.176 Z" />
    </clipPath>
    <clipPath
       id="clipPath9331"
       clipPathUnits="userSpaceOnUse">
      <path
         inkscape:connector-curvature="0"
         id="path9329"
         d="M 0,841.89 H 595.28 V 0 H 0 Z" />
    </clipPath>
    <clipPath
       id="clipPath9723"
       clipPathUnits="userSpaceOnUse">
      <path
         inkscape:connector-curvature="0"
         id="path9721"
         d="M 615.509,-0.068 H 742.638 V 91.088 H 615.509 Z" />
    </clipPath>
    <clipPath
       id="clipPath9735"
       clipPathUnits="userSpaceOnUse">
      <path
         inkscape:connector-curvature="0"
         id="path9733"
         d="M 615.509,-0.068 H 742.638 V 91.088 H 615.509 Z" />
    </clipPath>
    <clipPath
       id="clipPath9743"
       clipPathUnits="userSpaceOnUse">
      <path
         inkscape:connector-curvature="0"
         id="path9741"
         d="m 658.006,-20.627 c -5.606,9.838 -9.953,22.684 -15.523,35.197 -5.564,12.512 -11.954,23.114 -30.879,30.43 -17.465,6.752 -28.063,8.762 -51.58,12.857 -0.068,0.014 -0.168,-0.035 -0.237,-0.021 l -7.332,-4.377 c 0.049,-0.01 0.062,-0.088 0.109,-0.098 31.663,-5.316 41.918,-8.918 51.524,-12.48 9.833,-3.651 21.816,-9.381 28.256,-21.717 6.44,-12.336 10.021,-22.439 14.025,-32.389 4.003,-9.947 8.432,-17.615 13.755,-23.689 5.322,-6.076 15.079,-7.67 23.319,-8.469 1.67,-0.162 3.415,-0.107 5.198,0.051 0.057,0.006 0.213,0.07 0.271,0.076 l 7.57,4.545 c 0,0 -0.13,0.072 -0.239,0.051 -0.807,-0.151 -4.582,-0.662 -12.406,1 -17.347,3.691 -20.228,9.193 -25.831,19.033 m 54.43,-10.314 c -7.07,0.234 -17.781,1.265 -25.526,3.89 -10.522,3.571 -17.971,13.137 -23.883,26.93 -5.911,13.791 -10.229,25.133 -18.663,36.914 -8.435,11.779 -19.861,16.135 -31.522,19.885 -11.02,3.543 -26.716,7.318 -39.057,9.386 -0.054,0.01 -0.188,-0.031 -0.243,-0.023 l -5.556,-3.316 c 0.039,-0.006 0.078,-0.082 0.116,-0.09 7.922,-1.51 22.841,-4.635 36.798,-9.098 20.221,-6.469 28.859,-12.32 37.202,-24.174 6.534,-9.281 15.373,-35.633 23.181,-49.009 7.804,-13.377 23.531,-15.096 28.329,-15.715 4.896,-0.633 10.54,-0.588 10.727,-0.516 0.081,-0.002 0.261,0.049 0.272,0.047 l 8.002,4.805 c -0.05,0.002 -0.13,0.084 -0.177,0.084 m -33.309,-20.014 c -14.284,-1.086 -24.505,6.148 -30.89,16.851 -6.417,10.756 -10.617,22.276 -17.344,39.209 -6.724,16.93 -12.782,22.936 -30.695,29.383 -17.16,6.172 -34.547,9.383 -57.426,13.088 -0.055,0.008 -0.175,-0.041 -0.231,-0.033 l -9.335,-5.596 0.134,-0.097 c 6.734,-0.93 35.602,-5.082 60.471,-13.674 22.179,-7.664 26.883,-19.455 31.252,-29.854 4.369,-10.4 4.58,-15.086 12.905,-30.613 7.967,-14.855 15.293,-25.787 31.112,-24.826 0.045,0 0.161,0.074 0.207,0.078 l 9.995,6.002 c -0.043,-0.004 -0.112,0.084 -0.155,0.082 m 76.005,45.644 c -6.644,0.059 -15.983,0.551 -22.037,1.055 -9.13,0.766 -16.757,1.777 -25.34,6.07 -8.58,4.297 -12.511,14.465 -14.37,19.872 -1.863,5.408 -5.788,18.796 -10.221,32.261 -3.979,12.082 -9.203,15.149 -16.194,18.364 -0.053,0.025 -0.223,0.023 -0.277,0.046 l -5.054,-3.269 c 0.048,-0.029 0.073,-0.162 0.122,-0.192 4.971,-2.945 8.878,-6.375 12.258,-11.113 6.647,-9.318 9.625,-26.076 13.196,-35.83 4.274,-11.67 7.752,-18.627 15.161,-23.687 8.201,-5.6 21.713,-6.426 30.953,-6.891 6.138,-0.307 12.405,-0.172 16.454,-0.035 0.044,0.002 0.145,0.064 0.19,0.066 l 5.333,3.203 c -0.058,0 -0.116,0.079 -0.174,0.08 m -61.864,5.219 c -9.956,11.078 -14.156,27.377 -18.43,39.637 -4.505,12.928 -7.916,17.795 -18.944,24.851 -0.208,0.133 -0.419,0.272 -0.659,0.389 -0.046,0.022 -0.175,-0.004 -0.215,0.02 l -5.903,-3.821 c 0.032,-0.021 0.076,-0.144 0.11,-0.166 15.688,-10.183 22.169,-28.634 26.58,-41.675 4.406,-13.026 11.448,-25.846 21.785,-30.161 10.333,-4.314 20.908,-5.089 31.087,-5.48 3.447,-0.133 5.994,-0.1 7.864,-0.051 0.066,0.002 0.229,0.065 0.293,0.067 l 6.942,4.168 c -0.058,0 -0.105,0.068 -0.162,0.068 -4.399,-0.051 -14.476,-0.072 -19.761,0.453 -6.882,0.684 -20.631,0.627 -30.587,11.701 m 36.071,-20.662 c -7.914,-0.387 -21.246,0.32 -33.535,4.147 -14.669,4.568 -19.485,18.552 -25.477,32.916 -5.994,14.365 -9.46,21.06 -14.989,29.357 -2.788,4.184 -7.13,7.869 -12.517,11.117 -5.29,3.19 -11.595,5.979 -17.57,7.879 -11.135,3.543 -26.348,7.151 -39.133,8.729 -0.036,0.005 -0.054,-0.006 -0.242,-0.043 l -6.114,-3.594 c 0.046,-0.125 0.117,-0.113 0.186,-0.121 9.862,-1.192 33.637,-6.231 46.86,-11.922 13.878,-5.973 23.119,-14.803 28.673,-24.861 5.511,-9.979 11.065,-25.352 18.502,-39.133 7.443,-13.781 16.354,-16.006 24.309,-17.69 6.861,-1.453 15.304,-2.134 22.876,-1.814 0.058,0 0.234,0.072 0.289,0.072 l 8.098,4.865 c -0.055,-0.004 -0.158,0.098 -0.216,0.096" />
    </clipPath>
    <clipPath
       id="clipPath9791"
       clipPathUnits="userSpaceOnUse">
      <path
         inkscape:connector-curvature="0"
         id="path9789"
         d="M 615.509,-0.068 H 742.638 V 91.088 H 615.509 Z" />
    </clipPath>
  </defs>
  <sodipodi:namedview
     id="base"
     pagecolor="#ffffff"
     bordercolor="#666666"
     borderopacity="1.0"
     inkscape:pageopacity="0.0"
     inkscape:pageshadow="2"
     inkscape:zoom="0.35"
     inkscape:cx="-560.08306"
     inkscape:cy="-145.80621"
     inkscape:document-units="mm"
     inkscape:current-layer="layer1"
     showgrid="false"
     inkscape:window-width="1920"
     inkscape:window-height="1001"
     inkscape:window-x="-9"
     inkscape:window-y="-9"
     inkscape:window-maximized="1" />
  <metadata
     id="metadata5">
    <rdf:RDF>
      <cc:Work
         rdf:about="">
        <dc:format>image/svg+xml</dc:format>
        <dc:type
           rdf:resource="http://purl.org/dc/dcmitype/StillImage" />
        <dc:title></dc:title>
      </cc:Work>
    </rdf:RDF>
  </metadata>
  <g
     inkscape:label="Camada 1"
     inkscape:groupmode="layer"
     id="layer1"
     transform="translate(-82.798762,-80.179552)">
    <g
       id="g825"
       transform="matrix(0.35277777,0,0,-0.35277777,-170.4217,297.31397)">
      <g
         id="g827"
         clip-path="url(#clipPath831)">
        <g
           id="g833">
          <g
             id="g835"
             clip-path="url(#clipPath839)">
            <g
               id="g841">
              <g
                 id="g843"
                 clip-path="url(#clipPath847)">
                <g
                   id="g849"
                   transform="translate(114.7026,905.1475)">
                  <path
                     d="m 0,0 -102.526,-63.037 0.485,-0.789 102.526,63.037 z"
                     style="fill:#c2c1c1;fill-opacity:1;fill-rule:nonzero;stroke:none"
                     id="path851"
                     inkscape:connector-curvature="0" />
                </g>
                <g
                   id="g853"
                   transform="translate(115.1875,904.3584)">
                  <path
                     d="m 0,0 -102.525,-63.037 0.242,-0.395 102.526,63.037 z"
                     style="fill:#c3c2c2;fill-opacity:1;fill-rule:nonzero;stroke:none"
                     id="path855"
                     inkscape:connector-curvature="0" />
                </g>
                <g
                   id="g857"
                   transform="translate(115.4302,903.9639)">
                  <path
                     d="m 0,0 -102.525,-63.037 0.242,-0.395 102.526,63.037 z"
                     style="fill:#c4c3c3;fill-opacity:1;fill-rule:nonzero;stroke:none"
                     id="path859"
                     inkscape:connector-curvature="0" />
                </g>
                <g
                   id="g861"
                   transform="translate(115.6729,903.5693)">
                  <path
                     d="m 0,0 -102.526,-63.037 0.243,-0.395 102.526,63.037 z"
                     style="fill:#c4c3c4;fill-opacity:1;fill-rule:nonzero;stroke:none"
                     id="path863"
                     inkscape:connector-curvature="0" />
                </g>
                <g
                   id="g865"
                   transform="translate(115.9155,903.1748)">
                  <path
                     d="m 0,0 -102.526,-63.037 0.243,-0.395 102.525,63.037 z"
                     style="fill:#c5c4c5;fill-opacity:1;fill-rule:nonzero;stroke:none"
                     id="path867"
                     inkscape:connector-curvature="0" />
                </g>
                <g
                   id="g869"
                   transform="translate(116.1577,902.7803)">
                  <path
                     d="m 0,0 -102.525,-63.037 0.242,-0.395 102.526,63.037 z"
                     style="fill:#c6c5c5;fill-opacity:1;fill-rule:nonzero;stroke:none"
                     id="path871"
                     inkscape:connector-curvature="0" />
                </g>
                <g
                   id="g873"
                   transform="translate(116.4004,902.3857)">
                  <path
                     d="m 0,0 -102.525,-63.037 0.242,-0.395 102.526,63.037 z"
                     style="fill:#c7c6c6;fill-opacity:1;fill-rule:nonzero;stroke:none"
                     id="path875"
                     inkscape:connector-curvature="0" />
                </g>
                <g
                   id="g877"
                   transform="translate(116.6431,901.9912)">
                  <path
                     d="m 0,0 -102.525,-63.037 0.242,-0.395 102.526,63.037 z"
                     style="fill:#c8c7c7;fill-opacity:1;fill-rule:nonzero;stroke:none"
                     id="path879"
                     inkscape:connector-curvature="0" />
                </g>
                <g
                   id="g881"
                   transform="translate(116.8857,901.5967)">
                  <path
                     d="m 0,0 -102.526,-63.037 0.243,-0.395 102.526,63.037 z"
                     style="fill:#c9c8c8;fill-opacity:1;fill-rule:nonzero;stroke:none"
                     id="path883"
                     inkscape:connector-curvature="0" />
                </g>
                <g
                   id="g885"
                   transform="translate(117.1284,901.2021)">
                  <path
                     d="m 0,0 -102.526,-63.037 0.485,-0.789 102.526,63.037 z"
                     style="fill:#cac9c9;fill-opacity:1;fill-rule:nonzero;stroke:none"
                     id="path887"
                     inkscape:connector-curvature="0" />
                </g>
                <g
                   id="g889"
                   transform="translate(117.6133,900.4131)">
                  <path
                     d="m 0,0 -102.525,-63.037 0.242,-0.395 102.526,63.037 z"
                     style="fill:#cbcaca;fill-opacity:1;fill-rule:nonzero;stroke:none"
                     id="path891"
                     inkscape:connector-curvature="0" />
                </g>
                <g
                   id="g893"
                   transform="translate(117.856,900.0186)">
                  <path
                     d="m 0,0 -102.526,-63.037 0.243,-0.395 102.526,63.037 z"
                     style="fill:#cccbcb;fill-opacity:1;fill-rule:nonzero;stroke:none"
                     id="path895"
                     inkscape:connector-curvature="0" />
                </g>
                <g
                   id="g897"
                   transform="translate(118.0986,899.624)">
                  <path
                     d="m 0,0 -102.526,-63.037 0.243,-0.395 102.526,63.037 z"
                     style="fill:#cccbcc;fill-opacity:1;fill-rule:nonzero;stroke:none"
                     id="path899"
                     inkscape:connector-curvature="0" />
                </g>
                <g
                   id="g901"
                   transform="translate(118.3413,899.2295)">
                  <path
                     d="m 0,0 -102.526,-63.037 0.243,-0.395 102.525,63.037 z"
                     style="fill:#cdcccc;fill-opacity:1;fill-rule:nonzero;stroke:none"
                     id="path903"
                     inkscape:connector-curvature="0" />
                </g>
                <g
                   id="g905"
                   transform="translate(118.5835,898.835)">
                  <path
                     d="m 0,0 -102.525,-63.037 0.242,-0.395 102.526,63.037 z"
                     style="fill:#cecdcd;fill-opacity:1;fill-rule:nonzero;stroke:none"
                     id="path907"
                     inkscape:connector-curvature="0" />
                </g>
                <g
                   id="g909"
                   transform="translate(118.8262,898.4404)">
                  <path
                     d="m 0,0 -102.525,-63.037 0.242,-0.395 102.526,63.037 z"
                     style="fill:#cfcece;fill-opacity:1;fill-rule:nonzero;stroke:none"
                     id="path911"
                     inkscape:connector-curvature="0" />
                </g>
                <g
                   id="g913"
                   transform="translate(119.0688,898.0459)">
                  <path
                     d="m 0,0 -102.526,-63.037 0.243,-0.395 102.526,63.037 z"
                     style="fill:#d0cfcf;fill-opacity:1;fill-rule:nonzero;stroke:none"
                     id="path915"
                     inkscape:connector-curvature="0" />
                </g>
                <g
                   id="g917"
                   transform="translate(119.3115,897.6514)">
                  <path
                     d="m 0,0 -102.526,-63.037 0.243,-0.395 102.526,63.037 z"
                     style="fill:#d1d0d0;fill-opacity:1;fill-rule:nonzero;stroke:none"
                     id="path919"
                     inkscape:connector-curvature="0" />
                </g>
                <g
                   id="g921"
                   transform="translate(119.5542,897.2568)">
                  <path
                     d="m 0,0 -102.526,-63.037 0.485,-0.789 102.526,63.037 z"
                     style="fill:#d1d1d1;fill-opacity:1;fill-rule:nonzero;stroke:none"
                     id="path923"
                     inkscape:connector-curvature="0" />
                </g>
                <g
                   id="g925"
                   transform="translate(120.0391,896.4678)">
                  <path
                     d="m 0,0 -102.525,-63.037 0.242,-0.395 102.526,63.037 z"
                     style="fill:#d2d2d2;fill-opacity:1;fill-rule:nonzero;stroke:none"
                     id="path927"
                     inkscape:connector-curvature="0" />
                </g>
                <g
                   id="g929"
                   transform="translate(120.2817,896.0732)">
                  <path
                     d="m 0,0 -102.526,-63.037 0.243,-0.395 102.526,63.037 z"
                     style="fill:#d3d2d3;fill-opacity:1;fill-rule:nonzero;stroke:none"
                     id="path931"
                     inkscape:connector-curvature="0" />
                </g>
                <g
                   id="g933"
                   transform="translate(120.5244,895.6787)">
                  <path
                     d="m 0,0 -102.526,-63.037 0.243,-0.395 102.526,63.037 z"
                     style="fill:#d4d3d4;fill-opacity:1;fill-rule:nonzero;stroke:none"
                     id="path935"
                     inkscape:connector-curvature="0" />
                </g>
                <g
                   id="g937"
                   transform="translate(120.7671,895.2842)">
                  <path
                     d="m 0,0 -102.526,-63.037 0.243,-0.395 102.525,63.037 z"
                     style="fill:#d5d4d4;fill-opacity:1;fill-rule:nonzero;stroke:none"
                     id="path939"
                     inkscape:connector-curvature="0" />
                </g>
                <g
                   id="g941"
                   transform="translate(121.0093,894.8896)">
                  <path
                     d="m 0,0 -102.525,-63.037 0.242,-0.395 102.526,63.037 z"
                     style="fill:#d6d5d5;fill-opacity:1;fill-rule:nonzero;stroke:none"
                     id="path943"
                     inkscape:connector-curvature="0" />
                </g>
                <g
                   id="g945"
                   transform="translate(121.252,894.4951)">
                  <path
                     d="m 0,0 -102.525,-63.037 0.242,-0.395 102.526,63.037 z"
                     style="fill:#d7d6d6;fill-opacity:1;fill-rule:nonzero;stroke:none"
                     id="path947"
                     inkscape:connector-curvature="0" />
                </g>
                <g
                   id="g949"
                   transform="translate(121.4946,894.1006)">
                  <path
                     d="m 0,0 -102.526,-63.037 0.243,-0.395 102.526,63.037 z"
                     style="fill:#d7d7d7;fill-opacity:1;fill-rule:nonzero;stroke:none"
                     id="path951"
                     inkscape:connector-curvature="0" />
                </g>
                <g
                   id="g953"
                   transform="translate(121.7373,893.7061)">
                  <path
                     d="m 0,0 -102.526,-63.037 0.485,-0.789 102.526,63.037 z"
                     style="fill:#d8d8d8;fill-opacity:1;fill-rule:nonzero;stroke:none"
                     id="path955"
                     inkscape:connector-curvature="0" />
                </g>
                <g
                   id="g957"
                   transform="translate(122.2222,892.917)">
                  <path
                     d="m 0,0 -102.525,-63.037 0.242,-0.395 102.526,63.037 z"
                     style="fill:#d9d8d9;fill-opacity:1;fill-rule:nonzero;stroke:none"
                     id="path959"
                     inkscape:connector-curvature="0" />
                </g>
                <g
                   id="g961"
                   transform="translate(122.4648,892.5225)">
                  <path
                     d="m 0,0 -102.525,-63.037 0.242,-0.395 102.526,63.037 z"
                     style="fill:#dad9da;fill-opacity:1;fill-rule:nonzero;stroke:none"
                     id="path963"
                     inkscape:connector-curvature="0" />
                </g>
                <g
                   id="g965"
                   transform="translate(122.7075,892.1279)">
                  <path
                     d="m 0,0 -102.526,-63.037 0.243,-0.395 102.526,63.037 z"
                     style="fill:#dbdada;fill-opacity:1;fill-rule:nonzero;stroke:none"
                     id="path967"
                     inkscape:connector-curvature="0" />
                </g>
                <g
                   id="g969"
                   transform="translate(122.9502,891.7334)">
                  <path
                     d="m 0,0 -102.526,-63.037 0.243,-0.395 102.526,63.037 z"
                     style="fill:#dcdbdb;fill-opacity:1;fill-rule:nonzero;stroke:none"
                     id="path971"
                     inkscape:connector-curvature="0" />
                </g>
                <g
                   id="g973"
                   transform="translate(123.1929,891.3389)">
                  <path
                     d="m 0,0 -102.526,-63.037 0.243,-0.395 102.525,63.037 z"
                     style="fill:#dddcdc;fill-opacity:1;fill-rule:nonzero;stroke:none"
                     id="path975"
                     inkscape:connector-curvature="0" />
                </g>
                <g
                   id="g977"
                   transform="translate(123.4351,890.9443)">
                  <path
                     d="m 0,0 -102.525,-63.037 0.242,-0.395 102.526,63.037 z"
                     style="fill:#dedddd;fill-opacity:1;fill-rule:nonzero;stroke:none"
                     id="path979"
                     inkscape:connector-curvature="0" />
                </g>
                <g
                   id="g981"
                   transform="translate(123.6777,890.5498)">
                  <path
                     d="m 0,0 -102.525,-63.037 0.242,-0.395 102.526,63.037 z"
                     style="fill:#dedede;fill-opacity:1;fill-rule:nonzero;stroke:none"
                     id="path983"
                     inkscape:connector-curvature="0" />
                </g>
                <g
                   id="g985"
                   transform="translate(123.9204,890.1553)">
                  <path
                     d="m 0,0 -102.526,-63.037 0.243,-0.395 102.526,63.037 z"
                     style="fill:#dfdfdf;fill-opacity:1;fill-rule:nonzero;stroke:none"
                     id="path987"
                     inkscape:connector-curvature="0" />
                </g>
                <g
                   id="g989"
                   transform="translate(124.1631,889.7607)">
                  <path
                     d="m 0,0 -102.526,-63.037 0.485,-0.789 102.526,63.037 z"
                     style="fill:#e0dfe0;fill-opacity:1;fill-rule:nonzero;stroke:none"
                     id="path991"
                     inkscape:connector-curvature="0" />
                </g>
                <g
                   id="g993"
                   transform="translate(124.6479,888.9717)">
                  <path
                     d="m 0,0 -102.525,-63.037 0.242,-0.395 102.526,63.037 z"
                     style="fill:#e1e0e0;fill-opacity:1;fill-rule:nonzero;stroke:none"
                     id="path995"
                     inkscape:connector-curvature="0" />
                </g>
                <g
                   id="g997"
                   transform="translate(124.8906,888.5771)">
                  <path
                     d="m 0,0 -102.525,-63.037 0.242,-0.395 102.526,63.037 z"
                     style="fill:#e2e1e1;fill-opacity:1;fill-rule:nonzero;stroke:none"
                     id="path999"
                     inkscape:connector-curvature="0" />
                </g>
                <g
                   id="g1001"
                   transform="translate(125.1333,888.1826)">
                  <path
                     d="m 0,0 -102.526,-63.037 0.243,-0.395 102.526,63.037 z"
                     style="fill:#e3e2e2;fill-opacity:1;fill-rule:nonzero;stroke:none"
                     id="path1003"
                     inkscape:connector-curvature="0" />
                </g>
                <g
                   id="g1005"
                   transform="translate(125.376,887.7881)">
                  <path
                     d="m 0,0 -102.526,-63.037 0.243,-0.395 102.526,63.037 z"
                     style="fill:#e4e3e3;fill-opacity:1;fill-rule:nonzero;stroke:none"
                     id="path1007"
                     inkscape:connector-curvature="0" />
                </g>
                <g
                   id="g1009"
                   transform="translate(125.6187,887.3936)">
                  <path
                     d="m 0,0 -102.526,-63.037 0.243,-0.395 102.525,63.037 z"
                     style="fill:#e4e4e4;fill-opacity:1;fill-rule:nonzero;stroke:none"
                     id="path1011"
                     inkscape:connector-curvature="0" />
                </g>
                <g
                   id="g1013"
                   transform="translate(125.8608,886.999)">
                  <path
                     d="m 0,0 -102.525,-63.037 0.242,-0.395 102.526,63.037 z"
                     style="fill:#e5e5e5;fill-opacity:1;fill-rule:nonzero;stroke:none"
                     id="path1015"
                     inkscape:connector-curvature="0" />
                </g>
                <g
                   id="g1017"
                   transform="translate(126.1035,886.6045)">
                  <path
                     d="m 0,0 -102.525,-63.037 0.242,-0.395 102.526,63.037 z"
                     style="fill:#e6e6e6;fill-opacity:1;fill-rule:nonzero;stroke:none"
                     id="path1019"
                     inkscape:connector-curvature="0" />
                </g>
                <g
                   id="g1021"
                   transform="translate(126.3462,886.21)">
                  <path
                     d="m 0,0 -102.526,-63.037 0.485,-0.789 102.526,63.037 z"
                     style="fill:#e7e7e7;fill-opacity:1;fill-rule:nonzero;stroke:none"
                     id="path1023"
                     inkscape:connector-curvature="0" />
                </g>
                <g
                   id="g1025"
                   transform="translate(126.8315,885.4209)">
                  <path
                     d="m 0,0 -102.526,-63.037 0.243,-0.395 102.525,63.037 z"
                     style="fill:#e8e7e8;fill-opacity:1;fill-rule:nonzero;stroke:none"
                     id="path1027"
                     inkscape:connector-curvature="0" />
                </g>
                <g
                   id="g1029"
                   transform="translate(127.0737,885.0264)">
                  <path
                     d="m 0,0 -102.525,-63.037 0.242,-0.395 102.526,63.037 z"
                     style="fill:#e9e8e8;fill-opacity:1;fill-rule:nonzero;stroke:none"
                     id="path1031"
                     inkscape:connector-curvature="0" />
                </g>
                <g
                   id="g1033"
                   transform="translate(127.3164,884.6318)">
                  <path
                     d="m 0,0 -102.526,-63.037 0.243,-0.395 102.526,63.037 z"
                     style="fill:#e9e9e9;fill-opacity:1;fill-rule:nonzero;stroke:none"
                     id="path1035"
                     inkscape:connector-curvature="0" />
                </g>
                <g
                   id="g1037"
                   transform="translate(127.5591,884.2373)">
                  <path
                     d="m 0,0 -102.526,-63.037 0.243,-0.395 102.526,63.037 z"
                     style="fill:#eaeaea;fill-opacity:1;fill-rule:nonzero;stroke:none"
                     id="path1039"
                     inkscape:connector-curvature="0" />
                </g>
                <g
                   id="g1041"
                   transform="translate(127.8018,883.8428)">
                  <path
                     d="m 0,0 -102.526,-63.037 0.243,-0.395 102.525,63.037 z"
                     style="fill:#ebebeb;fill-opacity:1;fill-rule:nonzero;stroke:none"
                     id="path1043"
                     inkscape:connector-curvature="0" />
                </g>
                <g
                   id="g1045"
                   transform="translate(128.0439,883.4482)">
                  <path
                     d="m 0,0 -102.525,-63.037 0.242,-0.395 102.526,63.037 z"
                     style="fill:#ececec;fill-opacity:1;fill-rule:nonzero;stroke:none"
                     id="path1047"
                     inkscape:connector-curvature="0" />
                </g>
                <g
                   id="g1049"
                   transform="translate(128.2866,883.0537)">
                  <path
                     d="m 0,0 -102.525,-63.037 0.242,-0.395 102.526,63.037 z"
                     style="fill:#ededed;fill-opacity:1;fill-rule:nonzero;stroke:none"
                     id="path1051"
                     inkscape:connector-curvature="0" />
                </g>
                <g
                   id="g1053"
                   transform="translate(128.5293,882.6592)">
                  <path
                     d="m 0,0 -102.526,-63.037 0.243,-0.395 102.526,63.037 z"
                     style="fill:#eeeeee;fill-opacity:1;fill-rule:nonzero;stroke:none"
                     id="path1055"
                     inkscape:connector-curvature="0" />
                </g>
                <g
                   id="g1057"
                   transform="translate(128.772,882.2646)">
                  <path
                     d="m 0,0 -102.526,-63.037 0.485,-0.789 102.526,63.037 z"
                     style="fill:#efeeef;fill-opacity:1;fill-rule:nonzero;stroke:none"
                     id="path1059"
                     inkscape:connector-curvature="0" />
                </g>
                <g
                   id="g1061"
                   transform="translate(129.2568,881.4756)">
                  <path
                     d="m 0,0 -102.525,-63.037 0.242,-0.395 102.526,63.037 z"
                     style="fill:#f0efef;fill-opacity:1;fill-rule:nonzero;stroke:none"
                     id="path1063"
                     inkscape:connector-curvature="0" />
                </g>
                <g
                   id="g1065"
                   transform="translate(129.4995,881.0811)">
                  <path
                     d="m 0,0 -102.525,-63.037 0.242,-0.395 102.526,63.037 z"
                     style="fill:#f0f0f0;fill-opacity:1;fill-rule:nonzero;stroke:none"
                     id="path1067"
                     inkscape:connector-curvature="0" />
                </g>
                <g
                   id="g1069"
                   transform="translate(129.7422,880.6865)">
                  <path
                     d="m 0,0 -102.526,-63.037 0.243,-0.395 102.526,63.037 z"
                     style="fill:#f1f1f1;fill-opacity:1;fill-rule:nonzero;stroke:none"
                     id="path1071"
                     inkscape:connector-curvature="0" />
                </g>
                <g
                   id="g1073"
                   transform="translate(129.9849,880.292)">
                  <path
                     d="m 0,0 -102.526,-63.037 0.243,-0.395 102.526,63.037 z"
                     style="fill:#f2f2f2;fill-opacity:1;fill-rule:nonzero;stroke:none"
                     id="path1075"
                     inkscape:connector-curvature="0" />
                </g>
                <g
                   id="g1077"
                   transform="translate(130.2275,879.8975)">
                  <path
                     d="m 0,0 -102.526,-63.037 0.243,-0.395 102.525,63.037 z"
                     style="fill:#f3f3f3;fill-opacity:1;fill-rule:nonzero;stroke:none"
                     id="path1079"
                     inkscape:connector-curvature="0" />
                </g>
                <g
                   id="g1081"
                   transform="translate(130.4697,879.5029)">
                  <path
                     d="m 0,0 -102.525,-63.037 0.242,-0.395 102.526,63.037 z"
                     style="fill:#f4f4f4;fill-opacity:1;fill-rule:nonzero;stroke:none"
                     id="path1083"
                     inkscape:connector-curvature="0" />
                </g>
                <g
                   id="g1085"
                   transform="translate(130.7124,879.1084)">
                  <path
                     d="m 0,0 -102.525,-63.037 0.242,-0.395 102.526,63.037 z"
                     style="fill:#f5f4f5;fill-opacity:1;fill-rule:nonzero;stroke:none"
                     id="path1087"
                     inkscape:connector-curvature="0" />
                </g>
                <g
                   id="g1089"
                   transform="translate(130.9551,878.7139)">
                  <path
                     d="m 0,0 -102.526,-63.037 0.485,-0.789 102.526,63.037 z"
                     style="fill:#f6f5f5;fill-opacity:1;fill-rule:nonzero;stroke:none"
                     id="path1091"
                     inkscape:connector-curvature="0" />
                </g>
                <g
                   id="g1093"
                   transform="translate(131.4404,877.9248)">
                  <path
                     d="m 0,0 -102.526,-63.037 0.243,-0.395 102.525,63.037 z"
                     style="fill:#f6f6f6;fill-opacity:1;fill-rule:nonzero;stroke:none"
                     id="path1095"
                     inkscape:connector-curvature="0" />
                </g>
                <g
                   id="g1097"
                   transform="translate(131.6826,877.5303)">
                  <path
                     d="m 0,0 -102.525,-63.037 0.242,-0.395 102.526,63.037 z"
                     style="fill:#f7f7f7;fill-opacity:1;fill-rule:nonzero;stroke:none"
                     id="path1099"
                     inkscape:connector-curvature="0" />
                </g>
                <g
                   id="g1101"
                   transform="translate(131.9253,877.1357)">
                  <path
                     d="m 0,0 -102.525,-63.037 0.242,-0.395 102.526,63.037 z"
                     style="fill:#f8f8f8;fill-opacity:1;fill-rule:nonzero;stroke:none"
                     id="path1103"
                     inkscape:connector-curvature="0" />
                </g>
                <g
                   id="g1105"
                   transform="translate(132.168,876.7412)">
                  <path
                     d="m 0,0 -102.526,-63.037 0.243,-0.395 102.526,63.037 z"
                     style="fill:#f9f9f9;fill-opacity:1;fill-rule:nonzero;stroke:none"
                     id="path1107"
                     inkscape:connector-curvature="0" />
                </g>
                <g
                   id="g1109"
                   transform="translate(132.4106,876.3467)">
                  <path
                     d="m 0,0 -102.526,-63.037 0.243,-0.395 102.526,63.037 z"
                     style="fill:#fafafa;fill-opacity:1;fill-rule:nonzero;stroke:none"
                     id="path1111"
                     inkscape:connector-curvature="0" />
                </g>
                <g
                   id="g1113"
                   transform="translate(132.6533,875.9521)">
                  <path
                     d="m 0,0 -102.526,-63.037 0.243,-0.395 102.525,63.037 z"
                     style="fill:#fbfbfb;fill-opacity:1;fill-rule:nonzero;stroke:none"
                     id="path1115"
                     inkscape:connector-curvature="0" />
                </g>
                <g
                   id="g1117"
                   transform="translate(132.8955,875.5576)">
                  <path
                     d="m 0,0 -102.525,-63.037 0.242,-0.395 102.526,63.037 z"
                     style="fill:#fbfbfb;fill-opacity:1;fill-rule:nonzero;stroke:none"
                     id="path1119"
                     inkscape:connector-curvature="0" />
                </g>
                <g
                   id="g1121"
                   transform="translate(133.1382,875.1631)">
                  <path
                     d="m 0,0 -102.525,-63.037 0.242,-0.395 102.526,63.037 z"
                     style="fill:#fcfcfc;fill-opacity:1;fill-rule:nonzero;stroke:none"
                     id="path1123"
                     inkscape:connector-curvature="0" />
                </g>
                <g
                   id="g1125"
                   transform="translate(133.3809,874.7686)">
                  <path
                     d="m 0,0 -102.526,-63.037 0.485,-0.789 102.526,63.037 z"
                     style="fill:#fdfdfd;fill-opacity:1;fill-rule:nonzero;stroke:none"
                     id="path1127"
                     inkscape:connector-curvature="0" />
                </g>
                <g
                   id="g1129"
                   transform="translate(133.8662,873.9795)">
                  <path
                     d="m 0,0 -102.526,-63.037 0.243,-0.395 102.525,63.037 z"
                     style="fill:#fefefe;fill-opacity:1;fill-rule:nonzero;stroke:none"
                     id="path1131"
                     inkscape:connector-curvature="0" />
                </g>
                <g
                   id="g1133"
                   transform="translate(134.1084,873.585)">
                  <path
                     d="m 0,0 -102.525,-63.037 4.851,-7.891 102.526,63.037 z"
                     style="fill:#ffffff;fill-opacity:1;fill-rule:nonzero;stroke:none"
                     id="path1135"
                     inkscape:connector-curvature="0" />
                </g>
              </g>
            </g>
          </g>
        </g>
        <g
           id="g1137">
          <g
             id="g1139"
             clip-path="url(#clipPath1143)">
            <g
               id="g1145"
               transform="translate(86.8965,860.3369)">
              <path
                 d="m 0,0 c -7.412,5.061 -10.79,11.906 -15.063,23.578 -3.57,9.754 -6.548,26.524 -13.196,35.842 -3.412,4.785 -7.457,8.326 -12.493,11.289 l -6.619,-4.283 c 0.251,-0.156 0.508,-0.305 0.758,-0.463 11.026,-7.057 14.45,-11.881 18.957,-24.809 4.274,-12.259 8.495,-28.605 18.452,-39.679 9.957,-11.079 23.74,-11.061 30.622,-11.745 5.356,-0.533 15.666,-0.476 19.97,-0.423 l 2.566,1.543 3.629,2.177 C 43.542,-7.109 37.155,-7.225 30.949,-6.914 21.705,-6.447 8.201,-5.6 0,0 m -64.375,-30.586 c -8.326,15.525 -8.5,20.188 -12.872,30.586 -4.368,10.4 -8.995,22.15 -31.172,29.812 -24.868,8.592 -53.888,12.801 -60.621,13.729 l -0.145,0.027 -10.497,-6.236 c 37.026,-6.08 74.005,-12.703 85.553,-25.793 11.547,-13.09 10.962,-23.924 20.181,-43.164 9.222,-19.236 15.761,-27.338 29.789,-30.43 l 11.055,6.637 c -15.914,-1.027 -23.281,9.936 -31.271,24.832 m 22.183,-4.707 c -5.321,6.074 -9.737,13.756 -13.742,23.705 -4.004,9.949 -7.52,20.022 -13.96,32.356 -6.44,12.334 -18.485,18.132 -28.32,21.781 -9.617,3.568 -19.946,7.201 -51.722,12.531 l -9.291,-5.543 -0.623,-0.373 c 22.96,-3.717 40.41,-6.939 57.611,-13.129 17.916,-6.445 23.909,-12.39 30.633,-29.32 6.725,-16.934 10.929,-28.498 17.348,-39.256 6.405,-10.736 16.797,-18.018 31.15,-16.875 l 9.629,5.781 c -1.834,-0.162 -3.671,-0.203 -5.395,-0.035 -8.243,0.799 -17.995,2.301 -23.318,8.377 M 19.077,3.242 c -19.35,4.125 -22.513,21.891 -25.114,30.235 -2.601,8.343 -4.486,18.056 -9.372,30.513 -0.162,0.412 -0.333,0.817 -0.511,1.209 -0.056,0.131 -0.118,0.252 -0.179,0.377 -0.122,0.264 -0.248,0.526 -0.378,0.779 -0.073,0.145 -0.149,0.282 -0.224,0.422 -0.125,0.229 -0.246,0.455 -0.375,0.678 -0.084,0.143 -0.168,0.281 -0.255,0.422 -0.126,0.211 -0.255,0.418 -0.389,0.621 -0.09,0.139 -0.183,0.275 -0.274,0.412 -0.136,0.197 -0.276,0.395 -0.419,0.59 -0.092,0.127 -0.186,0.254 -0.282,0.379 -0.152,0.197 -0.306,0.391 -0.464,0.58 -0.093,0.113 -0.186,0.227 -0.276,0.338 -0.18,0.209 -0.361,0.41 -0.545,0.609 -0.079,0.086 -0.156,0.174 -0.237,0.26 -0.257,0.268 -0.519,0.531 -0.787,0.789 -0.013,0.012 -0.025,0.024 -0.036,0.035 -0.287,0.274 -0.582,0.537 -0.884,0.797 -0.059,0.049 -0.123,0.098 -0.18,0.149 -0.24,0.201 -0.481,0.4 -0.732,0.593 -0.095,0.075 -0.192,0.145 -0.289,0.217 -0.219,0.168 -0.44,0.33 -0.665,0.488 -0.108,0.08 -0.22,0.155 -0.335,0.231 -0.219,0.15 -0.439,0.299 -0.662,0.443 -0.117,0.076 -0.235,0.151 -0.355,0.225 -0.228,0.142 -0.458,0.283 -0.692,0.418 -0.12,0.072 -0.237,0.142 -0.359,0.211 -0.244,0.138 -0.489,0.275 -0.74,0.41 -0.116,0.062 -0.229,0.125 -0.346,0.185 -0.273,0.145 -0.552,0.286 -0.835,0.424 -0.095,0.047 -0.187,0.096 -0.284,0.143 -0.357,0.174 -0.726,0.344 -1.095,0.51 -0.018,0.009 -0.035,0.017 -0.053,0.025 l -6.152,-3.98 c 7.072,-3.245 12.386,-6.25 16.395,-18.43 4.433,-13.465 8.326,-26.858 10.186,-32.264 1.863,-5.406 5.854,-15.629 14.438,-19.926 8.578,-4.295 16.26,-5.338 25.387,-6.103 6.109,-0.51 15.553,-0.971 22.208,-1.026 l 6.557,3.938 c 0,0 -21.046,-1.051 -40.396,3.074 m -47.44,-7.793 c -7.44,13.781 -12.996,29.139 -18.508,39.117 -5.554,10.057 -14.789,18.846 -28.666,24.819 -13.314,5.73 -37.356,10.844 -47.092,11.99 l -2.475,-1.479 -3.745,-2.234 c 12.366,-2.062 28.203,-5.881 39.273,-9.439 11.661,-3.748 23.004,-8.006 31.44,-19.785 C -49.7,26.656 -45.361,15.291 -39.45,1.5 c 5.911,-13.791 13.432,-23.428 23.955,-26.996 7.798,-2.643 18.65,-3.682 25.718,-3.908 l 3.285,1.972 5.558,3.338 c -7.612,-0.338 -16.247,0.383 -23.159,1.844 -7.956,1.686 -16.831,3.918 -24.27,17.699 m -8.714,-13.414 c -7.807,13.379 -16.618,39.717 -23.155,49 -8.344,11.856 -17.023,17.721 -37.244,24.188 -14.023,4.486 -29.037,7.621 -36.928,9.123 l -2.68,-1.598 -5.52,-3.291 c 23.66,-4.121 34.238,-6.113 51.754,-12.885 18.925,-7.318 25.295,-17.881 30.861,-30.394 5.569,-12.51 9.939,-25.408 15.542,-35.246 5.606,-9.838 8.542,-15.383 25.888,-19.071 8.868,-1.888 12.64,-0.953 12.651,-0.951 l 8.129,4.881 c -0.138,0.061 -5.646,-0.121 -10.976,0.568 -4.801,0.62 -20.517,2.301 -28.322,15.676 m 32.306,8.701 C -15.106,-4.951 -22.056,7.746 -26.462,20.771 -30.88,33.84 -37.515,52.438 -53.274,62.605 L -59.71,58.4 c 5.39,-3.248 9.791,-6.962 12.582,-11.148 5.527,-8.295 9.002,-14.984 14.995,-29.348 5.993,-14.365 10.809,-28.429 25.475,-32.998 12.383,-3.853 25.935,-4.541 33.823,-4.135 l 6.716,4.028 0.565,0.34 c -1.888,-0.051 -4.535,-0.057 -8.101,0.082 -10.179,0.392 -20.779,1.199 -31.116,5.515"
                 style="fill:#231f20;fill-opacity:1;fill-rule:nonzero;stroke:none"
                 id="path1147"
                 inkscape:connector-curvature="0" />
            </g>
          </g>
        </g>
        <g
           id="g1149">
          <g
             id="g1151"
             clip-path="url(#clipPath1155)">
            <g
               id="g1157"
               transform="translate(702.1724,860.2944)">
              <path
                 d="m 0,0 c -7.412,5.061 -10.79,11.907 -15.063,23.579 -3.57,9.754 -6.548,26.523 -13.196,35.841 -3.412,4.786 -7.457,8.327 -12.493,11.289 l -6.619,-4.283 c 0.251,-0.156 0.508,-0.304 0.758,-0.463 11.026,-7.056 14.45,-11.88 18.957,-24.808 4.274,-12.26 8.495,-28.606 18.452,-39.68 9.957,-11.079 23.74,-11.061 30.622,-11.745 5.356,-0.533 15.666,-0.477 19.97,-0.424 l 2.566,1.544 3.629,2.177 C 43.542,-7.109 37.155,-7.225 30.949,-6.914 21.705,-6.447 8.201,-5.6 0,0 m -64.375,-30.586 c -8.326,15.525 -8.5,20.187 -12.872,30.586 -4.368,10.401 -8.995,22.151 -31.172,29.813 -24.868,8.592 -53.888,12.801 -60.621,13.729 l -0.145,0.027 -10.497,-6.236 c 37.026,-6.081 74.005,-12.704 85.553,-25.793 11.547,-13.091 10.962,-23.925 20.181,-43.165 9.222,-19.237 15.761,-27.338 29.789,-30.43 l 11.055,6.637 c -15.914,-1.028 -23.281,9.935 -31.271,24.832 m 22.183,-4.707 c -5.321,6.074 -9.737,13.755 -13.742,23.705 -4.004,9.949 -7.52,20.022 -13.96,32.356 -6.44,12.334 -18.485,18.133 -28.32,21.781 -9.617,3.569 -19.946,7.201 -51.722,12.532 l -9.291,-5.543 -0.623,-0.373 c 22.96,-3.717 40.41,-6.94 57.611,-13.129 17.916,-6.446 23.909,-12.391 30.633,-29.321 6.725,-16.934 10.929,-28.499 17.348,-39.257 6.405,-10.736 16.797,-18.017 31.15,-16.875 l 9.629,5.782 c -1.834,-0.162 -3.671,-0.203 -5.395,-0.035 -8.243,0.798 -17.995,2.3 -23.318,8.377 M 19.077,3.243 c -19.35,4.125 -22.513,21.89 -25.114,30.234 -2.601,8.344 -4.486,18.057 -9.372,30.514 -0.162,0.412 -0.333,0.816 -0.511,1.209 -0.056,0.131 -0.118,0.252 -0.179,0.377 -0.122,0.263 -0.248,0.525 -0.378,0.779 -0.073,0.144 -0.149,0.281 -0.224,0.422 -0.125,0.228 -0.246,0.455 -0.375,0.678 -0.084,0.142 -0.168,0.281 -0.255,0.421 -0.126,0.211 -0.255,0.418 -0.389,0.622 -0.09,0.138 -0.183,0.275 -0.274,0.412 -0.136,0.197 -0.276,0.394 -0.419,0.589 -0.092,0.127 -0.186,0.254 -0.282,0.379 -0.152,0.198 -0.306,0.391 -0.464,0.58 -0.093,0.114 -0.186,0.227 -0.276,0.338 -0.18,0.209 -0.361,0.411 -0.545,0.61 -0.079,0.086 -0.156,0.174 -0.237,0.26 -0.257,0.267 -0.519,0.531 -0.787,0.789 -0.013,0.011 -0.025,0.023 -0.036,0.035 -0.287,0.273 -0.582,0.537 -0.884,0.797 -0.059,0.048 -0.123,0.097 -0.18,0.148 -0.24,0.201 -0.481,0.4 -0.732,0.594 -0.095,0.074 -0.192,0.144 -0.289,0.217 -0.219,0.168 -0.44,0.33 -0.665,0.488 -0.108,0.08 -0.22,0.154 -0.335,0.23 -0.219,0.151 -0.439,0.299 -0.662,0.444 -0.117,0.076 -0.235,0.15 -0.355,0.224 -0.228,0.143 -0.458,0.284 -0.692,0.418 -0.12,0.073 -0.237,0.143 -0.359,0.211 -0.244,0.139 -0.489,0.276 -0.74,0.41 -0.116,0.063 -0.229,0.125 -0.346,0.186 -0.273,0.144 -0.552,0.285 -0.835,0.424 -0.095,0.047 -0.187,0.095 -0.284,0.142 -0.357,0.174 -0.726,0.344 -1.095,0.51 -0.018,0.01 -0.035,0.018 -0.053,0.025 l -6.152,-3.98 c 7.072,-3.244 12.386,-6.25 16.395,-18.43 4.433,-13.465 8.326,-26.857 10.186,-32.263 1.863,-5.407 5.854,-15.629 14.438,-19.926 8.578,-4.296 16.26,-5.339 25.387,-6.104 6.109,-0.51 15.553,-0.971 22.208,-1.026 l 6.557,3.938 c 0,0 -21.046,-1.051 -40.396,3.075 m -47.44,-7.794 c -7.44,13.782 -12.996,29.139 -18.508,39.118 -5.554,10.057 -14.789,18.846 -28.666,24.818 -13.314,5.731 -37.356,10.844 -47.092,11.99 l -2.475,-1.478 -3.745,-2.234 c 12.366,-2.063 28.203,-5.881 39.273,-9.44 11.661,-3.748 23.004,-8.006 31.44,-19.785 C -49.7,26.657 -45.361,15.292 -39.45,1.5 c 5.911,-13.792 13.432,-23.428 23.955,-26.997 7.798,-2.642 18.65,-3.681 25.718,-3.908 l 3.285,1.973 5.558,3.338 c -7.612,-0.338 -16.247,0.383 -23.159,1.844 -7.956,1.685 -16.831,3.917 -24.27,17.699 m -8.714,-13.414 c -7.807,13.379 -16.618,39.717 -23.155,49.001 -8.344,11.855 -17.023,17.72 -37.244,24.187 -14.023,4.486 -29.037,7.621 -36.928,9.123 l -2.68,-1.597 -5.52,-3.291 c 23.66,-4.122 34.238,-6.114 51.754,-12.885 18.925,-7.319 25.295,-17.881 30.861,-30.395 5.569,-12.51 9.939,-25.408 15.542,-35.247 5.606,-9.838 8.542,-15.383 25.888,-19.07 8.868,-1.889 12.64,-0.953 12.651,-0.951 l 8.129,4.881 c -0.138,0.06 -5.646,-0.122 -10.976,0.568 -4.801,0.619 -20.517,2.301 -28.322,15.676 m 32.306,8.701 C -15.106,-4.951 -22.056,7.747 -26.462,20.772 -30.88,33.84 -37.515,52.438 -53.274,62.606 l -6.436,-4.205 c 5.39,-3.248 9.791,-6.963 12.582,-11.149 5.527,-8.294 9.002,-14.984 14.995,-29.347 5.993,-14.365 10.809,-28.431 25.475,-32.999 12.383,-3.854 25.935,-4.541 33.823,-4.135 l 6.716,4.027 0.565,0.34 c -1.888,-0.051 -4.535,-0.056 -8.101,0.082 -10.179,0.393 -20.779,1.199 -31.116,5.516"
                 style="fill:#231f20;fill-opacity:1;fill-rule:nonzero;stroke:none"
                 id="path1159"
                 inkscape:connector-curvature="0" />
            </g>
          </g>
        </g>
      </g>
    </g>
    <g
       id="g9349"
       transform="matrix(0.35277777,0,0,-0.35277777,86.380162,91.833566)">
      <path
         d="M 0,0 V -23.336 H -10.152 V 33.035 H 26.443 V 24.092 H 0 V 8.943 H 24.17 V 0 Z"
         style="fill:#3a4953;fill-opacity:1;fill-rule:nonzero;stroke:none"
         id="path9351"
         inkscape:connector-curvature="0" />
    </g>
    <g
       id="g9353"
       transform="matrix(0.35277777,0,0,-0.35277777,150.08481,94.934835)">
      <path
         d="m 0,0 c 0,-10 -6.9,-15.229 -17.283,-15.229 -10.303,0 -17.194,5.682 -17.194,15.608 v 9.926 c 0,9.925 6.891,15.687 17.194,15.687 C -6.9,25.992 0,20.689 0,10.684 v -0.682 h -8.865 c 0,5.684 -3.112,8.031 -8.418,8.031 -5.223,0 -8.254,-2.722 -8.254,-8.486 V 1.215 c 0,-5.764 3.031,-8.488 8.254,-8.488 5.306,0 8.418,2.271 8.418,7.957 H 0 Z"
         style="fill:#3a4953;fill-opacity:1;fill-rule:nonzero;stroke:none"
         id="path9355"
         inkscape:connector-curvature="0" />
    </g>
    <g
       id="g9357"
       transform="matrix(0.35277777,0,0,-0.35277777,106.57048,94.238946)">
      <path
         d="m 0,0 h -10.605 c -5.534,0 -6.823,-2.578 -6.823,-5.23 0,-2.803 1.742,-4.471 4.776,-4.471 2.498,0 4.621,0.758 6.898,1.971 L 0,-4.625 Z m 0,-16.518 v 4.62 l -4.166,-2.272 c -3.713,-1.969 -6.592,-2.883 -10.537,-2.883 -7.117,0 -11.893,4.623 -11.893,11.367 0,8.334 6.516,12.202 14.78,12.202 H 0.08 v 2.345 c 0,5.157 -2.959,7.655 -8.189,7.655 -5.454,0 -8.637,-2.274 -8.637,-6.967 h -8.941 v 0.523 c 0,9.02 7.126,14.096 17.505,14.096 C 2.73,24.168 9.02,18.717 9.02,9.17 v -25.688 z"
         style="fill:#3a4953;fill-opacity:1;fill-rule:nonzero;stroke:none"
         id="path9359"
         inkscape:connector-curvature="0" />
    </g>
    <g
       id="g9361"
       transform="matrix(0.35277777,0,0,-0.35277777,119.06241,100.06595)">
      <path
         d="m 0,0 c -9.246,0 -15.23,4.619 -15.23,13.713 v 18.412 h -6.065 v 7.805 h 6.065 v 10.836 h 9.394 V 39.93 H 5.225 V 32.125 H -5.836 V 14.244 c 0,-4.701 2.123,-6.291 6.586,-6.291 H 5.453 V 0 Z"
         style="fill:#3a4953;fill-opacity:1;fill-rule:nonzero;stroke:none"
         id="path9363"
         inkscape:connector-curvature="0" />
    </g>
    <g
       id="g9365"
       transform="matrix(0.35277777,0,0,-0.35277777,132.08489,91.540055)">
      <path
         d="m 0,0 c 0,5.687 -3.332,8.791 -8.867,8.791 -5.602,0 -9.012,-3.104 -9.012,-8.867 V -1.057 H 0 Z m 8.564,-11.592 c 0,-8.107 -6.972,-13.26 -17.505,-13.26 -10.303,0 -17.649,5.608 -17.649,15.379 V 0 c 0,10.08 7.346,16.369 17.649,16.369 10.384,0 17.578,-5.99 17.578,-16.523 v -7.043 h -26.516 v -1.971 c 0,-5.684 3.787,-8.184 9.012,-8.184 5.16,0 8.642,1.819 8.642,6.139 h 8.789 z"
         style="fill:#3a4953;fill-opacity:1;fill-rule:nonzero;stroke:none"
         id="path9367"
         inkscape:connector-curvature="0" />
    </g>
    <g
       id="g9369"
       transform="matrix(0.35277777,0,0,-0.35277777,94.472355,108.77311)">
      <path
         d="M 0,0 V 12.498 L -3.917,0 h -2.706 l -3.894,12.476 V 0 h -2.751 v 16.37 h 4.445 L -5.214,4.181 -1.54,16.37 H 2.816 V 0 Z"
         style="fill:#b01419;fill-opacity:1;fill-rule:nonzero;stroke:none"
         id="path9371"
         inkscape:connector-curvature="0" />
    </g>
    <g
       id="g9373"
       transform="matrix(0.35277777,0,0,-0.35277777,99.206244,106.39013)">
      <path
         d="M 0,0 C 0,1.738 -1.1,2.706 -2.684,2.706 -4.269,2.706 -5.369,1.738 -5.369,0 v -2.002 c 0,-1.717 1.1,-2.707 2.685,-2.707 C -1.1,-4.709 0,-3.74 0,-2.002 Z m 2.552,-2.267 c 0,-2.925 -2.178,-4.73 -5.236,-4.73 -3.059,0 -5.237,1.805 -5.237,4.73 v 2.531 c 0,2.926 2.178,4.753 5.237,4.753 3.058,0 5.236,-1.827 5.236,-4.753 z"
         style="fill:#b01419;fill-opacity:1;fill-rule:nonzero;stroke:none"
         id="path9375"
         inkscape:connector-curvature="0" />
    </g>
    <g
       id="g9377"
       transform="matrix(0.35277777,0,0,-0.35277777,101.98437,108.50919)">
      <path
         d="m 0,0 v -0.484 c 0,-1.584 0.66,-2.464 2.75,-2.464 1.849,0 2.817,0.506 2.817,1.65 C 5.567,-0.308 4.797,0 3.586,0 Z m 2.53,5.391 c 1.408,0 2.201,0.528 2.201,1.716 0,1.144 -0.726,1.695 -1.981,1.695 H 1.738 c -1.254,0 -2.024,-0.397 -2.024,-1.739 0,-1.167 0.726,-1.672 1.98,-1.672 z M -0.484,3.454 c -0.528,0 -0.792,-0.241 -0.792,-0.769 0,-0.462 0.286,-0.727 0.748,-0.727 H 3.96 c 2.685,0 4.159,-1.034 4.159,-3.19 0,-2.42 -2.178,-3.718 -5.325,-3.718 -3.564,0 -5.17,1.605 -5.17,4.4 v 1.166 c -0.727,0.33 -1.145,0.99 -1.145,2.069 0,1.253 0.661,2.002 1.563,2.244 0,0 -0.836,0.66 -0.836,2.2 0,2.465 1.716,3.719 4.268,3.719 H 8.185 V 8.604 h -1.65 c 0,0 0.572,-0.462 0.572,-1.584 0,-2.223 -1.628,-3.566 -4.202,-3.566 z"
         style="fill:#b01419;fill-opacity:1;fill-rule:nonzero;stroke:none"
         id="path9379"
         inkscape:connector-curvature="0" />
    </g>
    <path
       d="m 105.51553,104.68254 h 0.96273 v 4.09081 h -0.96273 z m 1.01706,-1.10207 c 0,0.2868 -0.22542,0.44203 -0.53587,0.44203 -0.30268,0 -0.53551,-0.15523 -0.53551,-0.44203 v -0.1711 c 0,-0.29492 0.23283,-0.45015 0.53551,-0.45015 0.31045,0 0.53587,0.15523 0.53587,0.45015 z"
       style="fill:#b01419;fill-opacity:1;fill-rule:nonzero;stroke:none;stroke-width:0.35277778"
       id="path9381"
       inkscape:connector-curvature="0" />
    <g
       id="g9383"
       transform="matrix(0.35277777,0,0,-0.35277777,112.3922,106.00186)">
      <path
         d="m 0,0 -1.848,1.034 c -0.485,0.264 -1.012,0.44 -1.629,0.44 -1.1,0 -1.826,-0.748 -1.826,-1.892 v -3.301 c 0,-1.166 0.726,-1.914 1.826,-1.914 0.617,0 1.144,0.197 1.629,0.462 L 0,-4.159 Z m 0.022,-7.855 v 1.253 L -1.32,-7.327 c -0.902,-0.506 -1.739,-0.683 -2.597,-0.683 -2.398,0 -3.982,1.607 -3.982,3.961 v 3.895 c 0,2.332 1.628,4.005 4.026,4.005 0.858,0 1.651,-0.177 2.553,-0.683 L 0,2.442 v 6.073 h 2.618 v -16.37 z"
         style="fill:#b01419;fill-opacity:1;fill-rule:nonzero;stroke:none"
         id="path9385"
         inkscape:connector-curvature="0" />
    </g>
    <g
       id="g9387"
       transform="matrix(0.35277777,0,0,-0.35277777,116.86238,107.08087)">
      <path
         d="m 0,0 h -3.08 c -1.607,0 -1.981,-0.748 -1.981,-1.519 0,-0.813 0.507,-1.297 1.387,-1.297 0.726,0 1.342,0.219 2.002,0.572 L 0,-1.343 Z m 0,-4.797 v 1.342 l -1.21,-0.66 c -1.078,-0.572 -1.914,-0.836 -3.059,-0.836 -2.068,0 -3.454,1.343 -3.454,3.301 0,2.42 1.892,3.543 4.291,3.543 h 3.454 v 0.681 c 0,1.496 -0.858,2.223 -2.376,2.223 -1.584,0 -2.508,-0.66 -2.508,-2.025 h -2.597 v 0.154 c 0,2.619 2.068,4.093 5.083,4.093 3.168,0 4.995,-1.584 4.995,-4.357 v -7.459 z"
         style="fill:#b01419;fill-opacity:1;fill-rule:nonzero;stroke:none"
         id="path9389"
         inkscape:connector-curvature="0" />
    </g>
    <g
       id="g9391"
       transform="matrix(0.35277777,0,0,-0.35277777,121.19305,106.0098)">
      <path
         d="m 0,0 c 0,1.232 -0.858,1.805 -2.354,1.805 -1.497,0 -2.267,-0.617 -2.267,-1.431 0,-2.662 7.284,-0.021 7.284,-4.774 0,-2.267 -1.959,-3.609 -5.017,-3.609 -3.213,0 -5.061,1.43 -5.061,3.784 v 0.132 h 2.685 c 0,-1.231 0.879,-1.803 2.42,-1.803 1.518,0 2.376,0.593 2.376,1.429 0,2.399 -7.283,-0.044 -7.283,4.776 0,2.288 1.914,3.629 4.929,3.629 3.19,0 4.907,-1.452 4.907,-3.806 L 2.619,0 Z"
         style="fill:#b01419;fill-opacity:1;fill-rule:nonzero;stroke:none"
         id="path9393"
         inkscape:connector-curvature="0" />
    </g>
    <g
       id="g9395"
       transform="matrix(0.35277777,0,0,-0.35277777,129.90119,106.75497)">
      <path
         d="m 0,0 c 0,-3.872 -2.618,-5.963 -6.667,-5.963 -3.718,0 -6.799,1.958 -6.799,6.734 v 3.278 c 0,4.797 3.059,6.777 6.799,6.777 C -2.618,10.826 0,8.713 0,4.841 V 4.577 h -2.992 c 0,2.508 -1.342,3.652 -3.653,3.652 -2.068,0 -3.851,-0.99 -3.851,-4.356 V 0.969 c 0,-3.367 1.783,-4.358 3.851,-4.358 2.311,0 3.653,1.189 3.653,3.653 H 0 Z"
         style="fill:#b01419;fill-opacity:1;fill-rule:nonzero;stroke:none"
         id="path9397"
         inkscape:connector-curvature="0" />
    </g>
    <g
       id="g9399"
       transform="matrix(0.35277777,0,0,-0.35277777,130.8007,108.77311)">
      <path
         d="M 0,0 V 11.596 H 2.663 V 9.945 l 0.505,0.506 c 0.859,0.815 1.717,1.233 2.861,1.233 H 6.711 V 8.978 H 6.051 C 5.039,8.978 4.379,8.779 3.609,8.186 L 2.707,7.437 V 0 Z"
         style="fill:#b01419;fill-opacity:1;fill-rule:nonzero;stroke:none"
         id="path9401"
         inkscape:connector-curvature="0" />
    </g>
    <g
       id="g9403"
       transform="matrix(0.35277777,0,0,-0.35277777,136.38144,108.77311)">
      <path
         d="M 0,0 V 1.342 L -1.232,0.616 c -0.814,-0.506 -1.651,-0.748 -2.575,-0.748 -2.266,0 -3.652,1.518 -3.652,3.763 v 7.965 h 2.684 V 3.961 c 0,-1.013 0.594,-1.694 1.541,-1.694 0.571,0 1.033,0.219 1.518,0.505 l 1.694,0.991 v 7.833 H 2.64 V 0 Z"
         style="fill:#b01419;fill-opacity:1;fill-rule:nonzero;stroke:none"
         id="path9405"
         inkscape:connector-curvature="0" />
    </g>
    <g
       id="g9407"
       transform="matrix(0.35277777,0,0,-0.35277777,138.18149,108.77311)">
      <path
         d="m 0,0 v 2.244 l 6.381,7.085 h -6.403 v 2.267 H 9.835 V 9.352 L 3.499,2.244 H 9.945 V 0 Z"
         style="fill:#b01419;fill-opacity:1;fill-rule:nonzero;stroke:none"
         id="path9409"
         inkscape:connector-curvature="0" />
    </g>
    <g
       id="g9411"
       transform="matrix(0.35277777,0,0,-0.35277777,145.035,106.2971)">
      <path
         d="m 0,0 c 0,1.65 -0.968,2.553 -2.575,2.553 -1.628,0 -2.618,-0.903 -2.618,-2.574 V -0.308 H 0 Z m 2.486,-3.366 c 0,-2.355 -2.024,-3.851 -5.083,-3.851 -2.992,0 -5.126,1.629 -5.126,4.467 V 0 c 0,2.927 2.134,4.753 5.126,4.753 3.015,0 5.105,-1.738 5.105,-4.797 V -2.09 h -7.701 v -0.572 c 0,-1.65 1.1,-2.376 2.618,-2.376 1.497,0 2.509,0.528 2.509,1.782 h 2.552 z"
         style="fill:#b01419;fill-opacity:1;fill-rule:nonzero;stroke:none"
         id="path9413"
         inkscape:connector-curvature="0" />
    </g>
    <g
       id="g9415"
       transform="matrix(0.35277777,0,0,-0.35277777,149.28795,106.0098)">
      <path
         d="m 0,0 c 0,1.232 -0.858,1.805 -2.354,1.805 -1.497,0 -2.267,-0.617 -2.267,-1.431 0,-2.662 7.283,-0.021 7.283,-4.774 0,-2.267 -1.958,-3.609 -5.016,-3.609 -3.213,0 -5.061,1.43 -5.061,3.784 v 0.132 h 2.684 c 0,-1.231 0.88,-1.803 2.42,-1.803 1.519,0 2.377,0.593 2.377,1.429 0,2.399 -7.283,-0.044 -7.283,4.776 0,2.288 1.914,3.629 4.928,3.629 3.191,0 4.907,-1.452 4.907,-3.806 L 2.618,0 Z"
         style="fill:#b01419;fill-opacity:1;fill-rule:nonzero;stroke:none"
         id="path9417"
         inkscape:connector-curvature="0" />
    </g>
  </g>
</svg>
